<svg xmlns="http://www.w3.org/2000/svg" xmlns:xlink="http://www.w3.org/1999/xlink" viewBox="0 0 500 500"><defs><clipPath id="freepik--clip-path--inject-24"><path d="M33,282.45c1.17-.28,1.83-1.53,2.13-2.69a9.79,9.79,0,0,1,1.12-3.41A6.67,6.67,0,0,1,37.8,275a16.52,16.52,0,0,1,3.71-2.24,5.47,5.47,0,0,1,4.24,0c.28.13.57,0,.54-.27,10.31,2.11,14.24,8.56,24.55,5.34s12.26-4.07,20.61-3.16,8.83-.42,17.18,0,11.35-.91,16,0,16.4-.36,19.35-2.18,9.82-1.24,16.21-1.28,5.39-1,12.75,0,8.35,1,14.73-2,4.42-4.52,11.78-2.51a83.33,83.33,0,0,0,20.13,2.51c4.42,0,8,1,15.51-.95,5.53-1.46,11.46-1.53,17.14-1.6h.15c2.56,0,5.59-.44,8.11,0,1.32.24,2,1,3.22,1.51a10.82,10.82,0,0,0,5.41.57c2.48-.27,4.89-1,7.36-1.14,4.2-.27,8.34,1.09,12.55,1.09a57,57,0,0,1,6.66-.11c1.56.19,3.07.7,4.62,1a31,31,0,0,0,5.78.29q15.12-.12,30.22,1s-206.92,16.43-222.07,17.52l-38,2.7L51.93,292.8l-3.43.25c-.74,0-1.48.1-2.21.15-2.13.17-5.28,1.16-7.41,1.35" style="fill:#fff;stroke:#263238;stroke-linecap:round;stroke-linejoin:round"></path></clipPath><clipPath id="freepik--clip-path-2--inject-24"><path d="M88.59,446.5c-.1-2,1.82-3.51,3.75-3.93s3.93-.09,5.89-.26a11.81,11.81,0,0,0,4.27-1.24,2.72,2.72,0,0,0,1.58-1.64,2.38,2.38,0,0,0-1.1-2.24c-.69-.53-1.53-.88-2.17-1.48a3.83,3.83,0,0,1-.79-4.4c1.67-3.33,4.6-.57,6.81-2.36,1.72-1.39,1.18-5.05,2.79-6.86,3.34-3.75,32.76-7.28,42-6.48s.37-3.38-7.36-7.95-5.52-6.11-3.88-7.76,19.71-3.5,27.39-4.45-4-3.1-4.37-6.16,7.73-4.67,13-8.39,11.25-2.91,17.88-5.12,2.57-2.57.36-6.15,14.17-12.12,20.62-12,12.89-2.81,9.51-4.35,3.38-2.88,11.85-8,33.86-2.21,31.28-4.05-1.66-2.21.82-4,2.79-2-1.18-3-7.37.37-7.37-2.07.75-4.7,7.73-4.55,16.94-5.52,20.78-4.76-4.58-4.45-3.84-6.29c.63-1.57,5.65-1.37,6.94-1.44,2.95-.17,6.23.49,8.53-1.19a3,3,0,0,1,1.44-.41,94.61,94.61,0,0,1,17.65-.16c1.9.16,4.12.57,5.95,0-2.4-1.22-6.56-1-9.26-1.33-1.78-.24-6.4-.11-7.78-1.45-.83-.8-6.18.8-8.73-1.23s2.66-4,2.66-4,2.85-.21,2.63-1.34.59-2.27,7.37-3.08,12.73-4.26,9.88-5.73-1-2.52-.09-3,6.84-2.72,6.84-2.72,3-3,12.06-4.52,8.7-.41,5.36-2.57.06-1.1,8.44-2.57c3.75-.66-2.19-3,3-2.93s-.39-2.64,1.23-2.21a6.79,6.79,0,0,0,1.93,0,.36.36,0,0,1,.41-.23c.83.1,1.44-.51,2.17-.79a9.46,9.46,0,0,1,2.37-.38c1.15-.13,2.3-.26,3.45-.42a6.79,6.79,0,0,1-3.35-1,.48.48,0,0,1-.16-.63,1.75,1.75,0,0,1,1.73-.85,9.15,9.15,0,0,0,2.43-.45,8,8,0,0,1,2.58-.21,13.73,13.73,0,0,0,1.43,0c.5,0,1-.16,1.47-.23,1.9-.29,3.82-.34,5.72-.62a39.21,39.21,0,0,1,5.06-.7,14.18,14.18,0,0,1,1.84.1l1-.14c1-.13,3.56,0,4.25-.78-1.57-.42-3.31.19-4.92.07-1.12-.09-2.2-.47-3.32-.64-3.25-.47-6.74.9-9.78-.36a9.45,9.45,0,0,0-1.24-.5c-2-.51-3.94,1.32-5.94.94-1.49-.29-2.45-1.69-3.38-2.9a1.11,1.11,0,0,0-.6-.47,1,1,0,0,0-.7.16,5.69,5.69,0,0,1-2.7.89c-1,0-2.14-.56-3,0a6.67,6.67,0,0,0-1,1c-.94.85-2.36.74-3.63.7s-2.77.18-3.34,1.32c-.26.53-.27,1.18-.64,1.64a2.4,2.4,0,0,1-1.33.68,14.82,14.82,0,0,1-6.46.13,1.73,1.73,0,0,0-1.27.06,1.84,1.84,0,0,0-.54.9c-1.47,3.81-9.13,6.36-12.54,3.79-3-2.29-14.5,10.28-14.5,10.28l-9.49,2.17-3.34,2.69s-2-.33-10.8,3.45-2.47,4.41-6.94,6.54S262.5,304,262.5,304a96.81,96.81,0,0,1,12.31,0c5.66.46,0,3.88,0,3.88s-5.18,4-7.63,4.38-9.33,2.56-12.76,2.38-6.39,4.6-8.35,5.94-30.43,4.9-30.43,4.9,22.09.63,23.56.49-5.89,3.58-10.8,3.58-9.82,4.91-15.22,5.2-7.85,1.67-16.19,1.72-13.75,8.3-20.58,7.15-10.35,5.07-12.8,7.07-33.38,1.71-33.38,1.71L152.32,354c-9.33,6.85-3.44,8.37-12,16.11s-10.6,3.55-15.51,6-15.71,2-21.11,3.89-19.63,3-17.66,3.86,19.13,3.54,25.52,7.07-3,3.34-8.23,3.65-1.1,3.13-.12,5.28-3.93,3.25-17.17,5.68-15.91-.34-10.32,4.59c5.4,4.76-4.41,10.53-15.21,9.85s-5.89,9.67-5.89,9.67" style="fill:#fff;stroke:#263238;stroke-linecap:round;stroke-linejoin:round"></path></clipPath><clipPath id="freepik--clip-path-3--inject-24"><path d="M421.05,265c-2.21.17-7-1.64-9.94-1.81s-4.78,2.19-5.35,1.81-3.67-.72-6.93,0c-5,1.1-2.63,1.13-6.49,1.8s-4.24,1-1.48,1.62,4.4-.66,6.25.45,2.59,1.85.93,2.22a58.33,58.33,0,0,1-9,1.47c-3.36.18,4.71,1.1,8,.92a10.58,10.58,0,0,1,5.72,1.17c.74.3-6.65,1.73-5.72,2.21s8.3-.06,12.35.95,3.49,3.24,5.89,4,6.44,1.1,7.91,4c-.13.63.48.71,1.12.81s1.29-.08,1.93,0c1.93.09,3.77,2,5.5,1.17" style="fill:#fff;stroke:#263238;stroke-linecap:round;stroke-linejoin:round"></path></clipPath><clipPath id="freepik--clip-path-4--inject-24"><path d="M393.7,293.71c4.46.84,3.07,1.08,6.38,1.82a36.3,36.3,0,0,0,9.39.92c4.23,0,12,.18,8.83,0s-14.72,1.84-15.83,1.84.74,1.1.92,1.66-4.6.73-7.36.73-5.34.74-6.44,1.66-2.76.64-4.42,0a7.23,7.23,0,0,1-2.58-1.66s-.55-3.49-1.65-4.23,1.28-2-2.4-2.76,1.75-1,1.84-2.95-2.44-2.77-1-3.68,0-3,0-3,5.82-.61,6,.64,3.13,2.35,5,2.36a34.24,34.24,0,0,1,5.89,1.08s-7,.12-6.62,1.27,2.46,1.33,3.71,1.52S389.78,293,393.7,293.71Z" style="fill:#fff;stroke:#263238;stroke-linecap:round;stroke-linejoin:round"></path></clipPath><clipPath id="freepik--clip-path-5--inject-24"><path d="M446.12,300.89s-8.61-1.12-7.63,3.08,3.77,2.11-.08,6.59-5.81,5.22-8.27,5.22-10.06,2.57-4.41,2.63,9.52-1.77,9.17,0-4.51,3.5-4.26,4.73,1.42,3.14,3,2.31,1.62,1.13,3.09,3.58-1.3,3.49.74,6.14,6.29,3.59,6.29,3.59-2.07,1.31,2.32,1.31" style="fill:#fff;stroke:#263238;stroke-linecap:round;stroke-linejoin:round"></path></clipPath><clipPath id="freepik--clip-path-6--inject-24"><path d="M315,416.56c1.1-4.28,1.1-9.82,6.9-11.58s18.13-1.77,21.91,1.26,0,8.56-2,10.32-.75,3-3.52,4.29-20.34,2-23.27,0S315,416.56,315,416.56Z" style="fill:#fff;stroke:#263238;stroke-linecap:round;stroke-linejoin:round"></path></clipPath><clipPath id="freepik--clip-path-7--inject-24"><path d="M349.86,371.76c-.29,7.6-6.42,13-5.46,14.47s0,11.4,0,11.4-3.2-.82-7.67-5.34-23,4.11-23,4.11l-1.31-10.17,1.54-2.75.72-40.52.07-4.2s-7.1-12.2-11.36-21.06c-1.15-2.39-2.53-8.8-3.95-16.89-1.49-8.54-3-19-4.32-28.5-2.05-15-3.56-27.78-3.56-27.78s30.33-6.41,50.56-5.19c9.86.6,17.32,3,17.7,8.85,1.17,17.83-5.64,77.93-10,92.75S350.15,364.15,349.86,371.76Z" style="fill:#000000;stroke:#263238;stroke-linecap:round;stroke-linejoin:round"></path></clipPath><clipPath id="freepik--clip-path-8--inject-24"><path d="M393.6,217.48c-1,3.29-7.66,10.7-12.77,16.08-2.73,2.88-5,5.17-5.83,6l-.3.3,1.69,4.31,0,.1L370,254.72H348s.49-24.48,1.22-35.94-3.92-64.86-5.81-68.86-9.4-4.59-13.32-5.24-17,2.38-19.46,7.52-7.06,48.35-5.7,66.58a271.11,271.11,0,0,1,0,35.94h-23l-8.27-14.41.84-4.68.39-2.2a45,45,0,0,1-6.26-7.31c-3.57-5.14-7.08-12.5-5.77-20.42,2.46-14.84,26.51-52.52,26.51-52.52s21.29-9.2,38-10.31,42,7.61,44.69,12.52S395.31,212,393.6,217.48Z" style="fill:#999;stroke:#263238;stroke-linecap:round;stroke-linejoin:round"></path></clipPath><clipPath id="freepik--clip-path-9--inject-24"><path d="M340,135.19c-3.88-3.05-29.32-2.57-28.22,5.87s25.64,7.46,28.22,3.53S343.11,137.67,340,135.19Z" style="fill:#000000;stroke:#263238;stroke-linecap:round;stroke-linejoin:round"></path></clipPath><clipPath id="freepik--clip-path-10--inject-24"><path d="M317.63,163.44a93.28,93.28,0,0,0-.53,21.76c.13,1.16.3,2.31.51,3.44a3,3,0,0,1-2.69.82c-1.52-.42-3.31-2.47-4.29-2.47s-3,2.5-4.67,3c-1.17.34-2-1.31-2-1.31s0-1.53.15-4c.42-9.11,2-31.17,7.31-40.28.06-.11.12-.22.19-.33l8,8.09S318.49,156.79,317.63,163.44Z" style="fill:#000000;stroke:#263238;stroke-linecap:round;stroke-linejoin:round"></path></clipPath><clipPath id="freepik--clip-path-11--inject-24"><path d="M345.74,149.92c-1.82,6-18.27,11.78-27,7.56a9.58,9.58,0,0,1-3.1-2.34c-7-8.14-3.92-14.08-3.92-14.08.74.34,1.46.65,2.17.92,18.15,7,26.05-6.79,26.05-6.79,5.28,3,4.08,7.58,4.08,7.58S346.21,148.35,345.74,149.92Z" style="fill:#000000;stroke:#263238;stroke-linecap:round;stroke-linejoin:round"></path></clipPath><clipPath id="freepik--clip-path-12--inject-24"><path d="M351.79,110.73a.29.29,0,0,1-.13.14,9.18,9.18,0,0,1-2.92.3c-.24,2.67-4,12.61-4,12.61a7.76,7.76,0,0,0,.73,1.88c.38.53-1.9,4.92-2.41,5.77s-2.88.76-2.88.76-6,4.86-17.48-12.4c-3.06-4.58-15.45-11.09-15.45-11.09a1.5,1.5,0,0,1-.35-.93c-.15-2,2.17-5.22,2.17-5.22l1.56.16s8.79-11.37,13.09-10.32,15.85,2.89,17.33,4.15S352,110.19,351.79,110.73Z" style="fill:#000000;stroke:#263238;stroke-linecap:round;stroke-linejoin:round"></path></clipPath></defs><g id="freepik--background-simple--inject-24"><path d="M64.1,348.32c-24.93-22.5-15.84-77.8-.06-101.76,51.2-77.76,136.43-214.07,260-220.31,52.54-2.66,80.15,41.53,88.25,60,19.47,44.34,25.33,93,27.62,141,2.38,50.16.58,104-25,149.17-9.7,17.12-22.15,33.27-39.15,44.34-17.27,11.23-37.84,17.71-58.61,19.43-33.5,2.79-67.1-5.79-97.85-18.78s-59.22-30.31-88.43-46.21C111.8,364.85,85.11,367.28,64.1,348.32Z" style="fill:#000000"></path><path d="M64.1,348.32c-24.93-22.5-15.84-77.8-.06-101.76,51.2-77.76,136.43-214.07,260-220.31,52.54-2.66,80.15,41.53,88.25,60,19.47,44.34,25.33,93,27.62,141,2.38,50.16.58,104-25,149.17-9.7,17.12-22.15,33.27-39.15,44.34-17.27,11.23-37.84,17.71-58.61,19.43-33.5,2.79-67.1-5.79-97.85-18.78s-59.22-30.31-88.43-46.21C111.8,364.85,85.11,367.28,64.1,348.32Z" style="fill:#fff;opacity:0.7000000000000001"></path></g><g id="freepik--Trees--inject-24"><path d="M329.94,243.15l2.36-.17-.82,2,1.45.18,2.05-2,.77,1.85-.63,1.34s1.83-.85,2.82-1.41-1.35,2.41-1.35,2.41l5.36-2.23-.1,29.5h2.44c0-5.64.13-24.77.13-30l2.47,1.29-.7-3,1.58,1.31a39.25,39.25,0,0,1,3.79,1.66c.43.36-3.9-4.16-3.9-4.16a27,27,0,0,1,2.8,2.19.67.67,0,0,0,1.2-.13s1.65.43,2.74.81-.87-1.51-.87-1.51,3.61.48,2.25-.17-6.52-5.68-6.52-5.68h1.2l1.42.63-1.09-1.66,4,1-1.2-1c-.44-.34-1.76-1.62-2-1.81s1.43-.36.77-.78a13.51,13.51,0,0,1-2.74-2.07,40,40,0,0,0-3.5-3.14s1.75.59,2.08.63,3.18,1,3.18,1l-1.87-1.67,2.85.37-1.2-.87a8.45,8.45,0,0,0-2.07-1.5c-.53-.06.42-.91-.67-1.39a24.4,24.4,0,0,1-3.4-2.26l-.65-.89,2.74.61-.88-1.6s5,1.66,1.75-.29-6-7.25-6-7.25-2.48,5.25-4.42,6.9,2.12-.4,1.46.35-1.21.92-.77,1.28.74-.25.74-.25h1.78l-.9,1s-4.62,3.85-3.67,3.81a15.54,15.54,0,0,0,2.05-.24s-1.63,2.3-2.18,2.37a7.67,7.67,0,0,0-2,1.38l3.47-1.19-3,3.77-1,1.85a21.72,21.72,0,0,1,2-.78c.71-.21-2.79,1.89-2.79,1.89l2.08-.25-2,2,2.58-1.44.11.13.27-.34.7-.39L335,238.74Z" style="fill:#000000"></path><path d="M329.94,243.15l2.36-.17-.82,2,1.45.18,2.05-2,.77,1.85-.63,1.34s1.83-.85,2.82-1.41-1.35,2.41-1.35,2.41l5.36-2.23-.1,29.5h2.44c0-5.64.13-24.77.13-30l2.47,1.29-.7-3,1.58,1.31a39.25,39.25,0,0,1,3.79,1.66c.43.36-3.9-4.16-3.9-4.16a27,27,0,0,1,2.8,2.19.67.67,0,0,0,1.2-.13s1.65.43,2.74.81-.87-1.51-.87-1.51,3.61.48,2.25-.17-6.52-5.68-6.52-5.68h1.2l1.42.63-1.09-1.66,4,1-1.2-1c-.44-.34-1.76-1.62-2-1.81s1.43-.36.77-.78a13.51,13.51,0,0,1-2.74-2.07,40,40,0,0,0-3.5-3.14s1.75.59,2.08.63,3.18,1,3.18,1l-1.87-1.67,2.85.37-1.2-.87a8.45,8.45,0,0,0-2.07-1.5c-.53-.06.42-.91-.67-1.39a24.4,24.4,0,0,1-3.4-2.26l-.65-.89,2.74.61-.88-1.6s5,1.66,1.75-.29-6-7.25-6-7.25-2.48,5.25-4.42,6.9,2.12-.4,1.46.35-1.21.92-.77,1.28.74-.25.74-.25h1.78l-.9,1s-4.62,3.85-3.67,3.81a15.54,15.54,0,0,0,2.05-.24s-1.63,2.3-2.18,2.37a7.67,7.67,0,0,0-2,1.38l3.47-1.19-3,3.77-1,1.85a21.72,21.72,0,0,1,2-.78c.71-.21-2.79,1.89-2.79,1.89l2.08-.25-2,2,2.58-1.44.11.13.27-.34.7-.39L335,238.74Z" style="fill:#fff;opacity:0.9"></path><path d="M305.74,241.88s-2.67,2.55-1.19,2,3.7-1.08,3.7-1.08a.92.92,0,0,0,1.63.17,35.77,35.77,0,0,1,3.8-3s-5.87,6.11-5.28,5.63a52.59,52.59,0,0,1,5.13-2.26l2.13-1.76-1,4,3.35-1.76c0,7.15.23,24.61.16,30.69h3.31l-.13-30.07,7.25,3s-3.16-4-1.82-3.25,3.82,1.91,3.82,1.91l-.86-1.81,1-2.52,2.78,2.66,2-.24-1.11-2.64,3.18.22-6.81-5.95-2.18-4.72,1,.53.37.46.15-.17,3.49,1.95-2.69-2.68,2.82.32s-4.73-2.83-3.77-2.55,2.74,1.05,2.74,1.05l-1.34-2.5-4.1-5.09,4.69,1.61s-1.92-1.76-2.67-1.87-3-3.22-3-3.22a21.86,21.86,0,0,0,2.78.34c1.29.05-5-5.15-5-5.15l-1.22-1.4h2.41s.4.82,1,.33-.14-.72-1-1.73,4.59,1.75,2-.47-6-9.34-6-9.34-3.71,7.17-8.16,9.81,2.38.4,2.38.4L314.33,214l3.7-.83-.88,1.21a33.88,33.88,0,0,1-4.6,3.06c-1.48.64-.19,1.79-.91,1.88s-2.79,2-2.79,2l-1.63,1.19,3.85-.51-2.52,2.26s3.85-1.36,4.3-1.41,2.81-.85,2.81-.85a54.09,54.09,0,0,0-4.74,4.25,18.18,18.18,0,0,1-3.7,2.8c-.89.57,1.33.79,1,1.05s-2.07,2-2.66,2.46S304,233.9,304,233.9l5.48-1.32L308,234.83l1.92-.85h1.63s-7,6.81-8.82,7.68S305.74,241.88,305.74,241.88Z" style="fill:#000000"></path><path d="M305.74,241.88s-2.67,2.55-1.19,2,3.7-1.08,3.7-1.08a.92.92,0,0,0,1.63.17,35.77,35.77,0,0,1,3.8-3s-5.87,6.11-5.28,5.63a52.59,52.59,0,0,1,5.13-2.26l2.13-1.76-1,4,3.35-1.76c0,7.15.23,24.61.16,30.69h3.31l-.13-30.07,7.25,3s-3.16-4-1.82-3.25,3.82,1.91,3.82,1.91l-.86-1.81,1-2.52,2.78,2.66,2-.24-1.11-2.64,3.18.22-6.81-5.95-2.18-4.72,1,.53.37.46.15-.17,3.49,1.95-2.69-2.68,2.82.32s-4.73-2.83-3.77-2.55,2.74,1.05,2.74,1.05l-1.34-2.5-4.1-5.09,4.69,1.61s-1.92-1.76-2.67-1.87-3-3.22-3-3.22a21.86,21.86,0,0,0,2.78.34c1.29.05-5-5.15-5-5.15l-1.22-1.4h2.41s.4.82,1,.33-.14-.72-1-1.73,4.59,1.75,2-.47-6-9.34-6-9.34-3.71,7.17-8.16,9.81,2.38.4,2.38.4L314.33,214l3.7-.83-.88,1.21a33.88,33.88,0,0,1-4.6,3.06c-1.48.64-.19,1.79-.91,1.88s-2.79,2-2.79,2l-1.63,1.19,3.85-.51-2.52,2.26s3.85-1.36,4.3-1.41,2.81-.85,2.81-.85a54.09,54.09,0,0,0-4.74,4.25,18.18,18.18,0,0,1-3.7,2.8c-.89.57,1.33.79,1,1.05s-2.07,2-2.66,2.46S304,233.9,304,233.9l5.48-1.32L308,234.83l1.92-.85h1.63s-7,6.81-8.82,7.68S305.74,241.88,305.74,241.88Z" style="fill:#fff;opacity:0.7000000000000001"></path><path d="M266.92,237.85l4.23-.29-1.48,3.5,2.61.33,3.69-3.54,1.38,3.35-1.14,2.4s3.31-1.53,5.08-2.54-2.41,4.33-2.41,4.33l9.63-4-.18,33.22h4.4c-.1-7.25.21-24.34.21-34l4.45,2.34-1.26-5.35,2.84,2.35a68.46,68.46,0,0,1,6.81,3c.78.64-7-7.49-7-7.49a46.74,46.74,0,0,1,5,3.94,1.21,1.21,0,0,0,2.16-.24s3,.78,4.93,1.45-1.58-2.72-1.58-2.72,6.5.87,4.05-.29-11.73-10.21-11.73-10.21h2.17l2.56,1.13-2-3,7.28,1.76-2.16-1.76c-.79-.62-3.15-2.92-3.55-3.26s2.56-.64,1.38-1.4-4.13-2.59-4.92-3.72-6.3-5.65-6.3-5.65,3.15,1.07,3.74,1.13,5.71,1.88,5.71,1.88l-3.35-3,5.12.67-2.17-1.57s-2.75-2.56-3.71-2.68.76-1.65-1.21-2.5a44.32,44.32,0,0,1-6.1-4.07L293,199.7l4.92,1.1-1.58-2.87s9.06,3,3.15-.53-10.83-13-10.83-13-4.44,9.44-7.93,12.4,3.8-.71,2.62.63-2.17,1.65-1.38,2.3,1.32-.44,1.32-.44h3.21l-1.63,1.86s-8.31,6.91-6.6,6.85a29.86,29.86,0,0,0,3.7-.45S279,211.66,278,211.8s-3.56,2.48-3.56,2.48l6.25-2.15-5.46,6.78-1.77,3.32a38.42,38.42,0,0,1,3.64-1.4c1.28-.37-5,3.39-5,3.39l3.75-.43-3.57,3.56,4.64-2.59.2.23.49-.61,1.27-.71L276,229.94Z" style="fill:#000000"></path><path d="M266.92,237.85l4.23-.29-1.48,3.5,2.61.33,3.69-3.54,1.38,3.35-1.14,2.4s3.31-1.53,5.08-2.54-2.41,4.33-2.41,4.33l9.63-4-.18,33.22h4.4c-.1-7.25.21-24.34.21-34l4.45,2.34-1.26-5.35,2.84,2.35a68.46,68.46,0,0,1,6.81,3c.78.64-7-7.49-7-7.49a46.74,46.74,0,0,1,5,3.94,1.21,1.21,0,0,0,2.16-.24s3,.78,4.93,1.45-1.58-2.72-1.58-2.72,6.5.87,4.05-.29-11.73-10.21-11.73-10.21h2.17l2.56,1.13-2-3,7.28,1.76-2.16-1.76c-.79-.62-3.15-2.92-3.55-3.26s2.56-.64,1.38-1.4-4.13-2.59-4.92-3.72-6.3-5.65-6.3-5.65,3.15,1.07,3.74,1.13,5.71,1.88,5.71,1.88l-3.35-3,5.12.67-2.17-1.57s-2.75-2.56-3.71-2.68.76-1.65-1.21-2.5a44.32,44.32,0,0,1-6.1-4.07L293,199.7l4.92,1.1-1.58-2.87s9.06,3,3.15-.53-10.83-13-10.83-13-4.44,9.44-7.93,12.4,3.8-.71,2.62.63-2.17,1.65-1.38,2.3,1.32-.44,1.32-.44h3.21l-1.63,1.86s-8.31,6.91-6.6,6.85a29.86,29.86,0,0,0,3.7-.45S279,211.66,278,211.8s-3.56,2.48-3.56,2.48l6.25-2.15-5.46,6.78-1.77,3.32a38.42,38.42,0,0,1,3.64-1.4c1.28-.37-5,3.39-5,3.39l3.75-.43-3.57,3.56,4.64-2.59.2.23.49-.61,1.27-.71L276,229.94Z" style="fill:#fff;opacity:0.5"></path><path d="M228.45,230.28s-4.54,4.34-2,3.49,6.32-1.84,6.32-1.86a1.56,1.56,0,0,0,2.78.31,59.57,59.57,0,0,1,6.46-5.06s-10,10.42-9,9.6,8.74-3.85,8.74-3.85l3.64-3-1.62,6.85,5.7-3c0,12.66.42,31.7.27,40.84h5.65l-.23-39.79L267.51,240s-5.38-6.84-3.1-5.55,6.51,3.26,6.51,3.26l-1.46-3.09,1.77-4.29,4.74,4.54,3.34-.42-1.89-4.49,5.43.37-11.62-10.15-3.72-8,1.63.91.62.78.25-.29,6,3.32-4.58-4.57,4.81.56s-8.08-4.83-6.44-4.36,4.67,1.8,4.67,1.8L272.15,206l-7-8.69,8,2.75s-3.28-3-4.56-3.18-5-5.49-5-5.49a35.72,35.72,0,0,0,4.74.58c2.19.08-8.47-8.79-8.47-8.79l-2.08-2.38h4.11s.69,1.4,1.7.57-.26-1.23-1.77-3,7.83,3,3.35-.8S255,161.68,255,161.68s-6.32,12.21-13.9,16.71,4,.68,4,.68l-2,3.69,6.32-1.41-1.52,2.06s-5.3,4.13-7.83,5.22-.33,3.05-1.55,3.2-4.76,3.45-4.76,3.45l-2.78,2,6.57-.86-4.3,3.86s6.57-2.32,7.33-2.41,4.8-1.45,4.8-1.45-7.07,5.78-8.08,7.24-4.8,3.79-6.32,4.77,2.27,1.36,1.77,1.8-3.54,3.39-4.55,4.19-2.78,2.25-2.78,2.25l9.35-2.25-2.53,3.83,3.29-1.45h2.78s-11.91,11.61-15.05,13.1S228.45,230.28,228.45,230.28Z" style="fill:#000000"></path><path d="M228.45,230.28s-4.54,4.34-2,3.49,6.32-1.84,6.32-1.86a1.56,1.56,0,0,0,2.78.31,59.57,59.57,0,0,1,6.46-5.06s-10,10.42-9,9.6,8.74-3.85,8.74-3.85l3.64-3-1.62,6.85,5.7-3c0,12.66.42,31.7.27,40.84h5.65l-.23-39.79L267.51,240s-5.38-6.84-3.1-5.55,6.51,3.26,6.51,3.26l-1.46-3.09,1.77-4.29,4.74,4.54,3.34-.42-1.89-4.49,5.43.37-11.62-10.15-3.72-8,1.63.91.62.78.25-.29,6,3.32-4.58-4.57,4.81.56s-8.08-4.83-6.44-4.36,4.67,1.8,4.67,1.8L272.15,206l-7-8.69,8,2.75s-3.28-3-4.56-3.18-5-5.49-5-5.49a35.72,35.72,0,0,0,4.74.58c2.19.08-8.47-8.79-8.47-8.79l-2.08-2.38h4.11s.69,1.4,1.7.57-.26-1.23-1.77-3,7.83,3,3.35-.8S255,161.68,255,161.68s-6.32,12.21-13.9,16.71,4,.68,4,.68l-2,3.69,6.32-1.41-1.52,2.06s-5.3,4.13-7.83,5.22-.33,3.05-1.55,3.2-4.76,3.45-4.76,3.45l-2.78,2,6.57-.86-4.3,3.86s6.57-2.32,7.33-2.41,4.8-1.45,4.8-1.45-7.07,5.78-8.08,7.24-4.8,3.79-6.32,4.77,2.27,1.36,1.77,1.8-3.54,3.39-4.55,4.19-2.78,2.25-2.78,2.25l9.35-2.25-2.53,3.83,3.29-1.45h2.78s-11.91,11.61-15.05,13.1S228.45,230.28,228.45,230.28Z" style="fill:#fff;opacity:0.30000000000000004"></path><path d="M167,221.26l7-.49-2.44,5.79,4.31.54,6.11-5.84,2.27,5.52-1.88,4s5.46-2.54,8.39-4.2-4,7.15-4,7.15l15.92-6.61-.28,47.51h7.27c-.22-11.59.33-32.31.33-48.87l7.35,3.86-2.08-8.83,4.69,3.88s10,3.9,11.25,4.95-11.58-12.36-11.58-12.36,6,4.15,8.33,6.51,3.57-.41,3.57-.39,4.89,1.28,8.14,2.38-2.6-4.48-2.6-4.48,10.73,1.43,6.69-.49-19.38-16.87-19.38-16.87H228l4.23,1.87-3.26-4.93,12,2.9s-2.28-1.88-3.58-2.9-5.2-4.83-5.86-5.4,4.24-1.06,2.28-2.32-6.83-4.27-8.13-6.15-10.41-9.33-10.41-9.33,5.2,1.77,6.18,1.88,9.43,3.1,9.43,3.1l-5.53-5,8.46,1.12-3.58-2.6s-4.55-4.23-6.13-4.43,1.25-2.73-2-4.14S212,160.88,212,160.88l-1.95-2.66,8.14,1.82-2.61-4.76s15,4.93,5.21-.87-17.9-21.53-17.9-21.53-7.35,15.6-13.11,20.49,6.28-1.18,4.32,1-3.58,2.73-2.27,3.81,2.18-.73,2.18-.73h5.3l-2.69,3.06s-13.73,11.42-10.9,11.32a46.26,46.26,0,0,0,6.11-.74s-4.85,6.84-6.5,7.07-5.87,4.1-5.87,4.1l10.32-3.54-9,11.19-2.93,5.49s3.91-1.71,6-2.32-8.29,5.62-8.29,5.62l6.19-.72-5.9,5.88,7.67-4.28.33.38.8-1,2.1-1.17L182,208.18Z" style="fill:#000000"></path><path d="M237.06,221.26s5.85,5.58,2.6,4.48-8.14-2.37-8.14-2.39-1.3,2.76-3.57.39a78.39,78.39,0,0,0-8.33-6.5s12.88,13.42,11.58,12.37-11.25-5-11.25-5l-4.69-3.87,2.08,8.83L210,225.74c0,5.24-.06,10.9-.12,16.56-.15,12.2-.36,24.38-.21,32.31H202.4l.18-32.38.09-15.13-15.92,6.61s6.92-8.81,4-7.15-8.4,4.2-8.4,4.2l1.88-4L182,221.26l-6.1,5.84-4.3-.54,2.43-5.78-7,.48,11.93-10.42,3-2.66,4.18-9,.62-1.34-2.1,1.17-.62.78-.18.23-.12-.13-.21-.25-.14.09-7.53,4.19,5.91-5.88-.34,0-5.86.68s10.39-6.23,8.29-5.62-5.77,2.21-6,2.31l2.91-5.49,6-7.37L188,181h0l.08-.12,1.68-2.07-10.31,3.53c.25-.24,4.28-3.87,5.87-4.09,1.18-.17,4-3.77,5.53-5.76h0l.57-.78.28-.38a.94.94,0,0,0,.09-.13l-.28,0-.13,0a44.28,44.28,0,0,1-5.69.66c-2.83.11,10.9-11.31,10.9-11.31l1-1.15,1.69-1.92H194s-.88,1.79-2.19.72.33-1.58,2.28-3.79-10.08,3.84-4.32-1a14.22,14.22,0,0,0,1.26-1.22c5.52-5.83,11.85-19.28,11.85-19.28s8.13,15.74,17.89,21.55-5.2.86-5.2.86l2.61,4.76-8.14-1.83,1.95,2.67s6.83,5.31,10.09,6.71.43,3.94,2,4.13c1.16.15,3.94,2.5,5.32,3.71l.81.73,3.58,2.6-8.46-1.12,5.53,5s-8.46-3-9.43-3.09a55.6,55.6,0,0,1-5.35-1.6h0l-.79-.26c.46.39,9.12,7.49,10.39,9.33s6.18,4.88,8.13,6.14-2.93,1.75-2.28,2.32,4.56,4.37,5.87,5.39,3.57,2.91,3.57,2.91l-12-2.91,3.26,4.94L228,203.9h-3.58s15.33,15,19.38,16.88S237.06,221.26,237.06,221.26Z" style="fill:#fff;opacity:0.2"></path><path d="M184.06,204.14a5.8,5.8,0,0,1-.68,2.62A4.8,4.8,0,0,1,184.06,204.14Z" style="fill:#fff;opacity:0.30000000000000004"></path><path d="M188.1,180.83a.27.27,0,0,1-.07.14s0,0,0,0c-.23-.36,0-1,.41-.86A4.5,4.5,0,0,1,188.1,180.83Z" style="fill:#fff;opacity:0.30000000000000004"></path><path d="M201.33,203.15a2.5,2.5,0,0,1-.06.38A.67.67,0,0,1,201.33,203.15Z" style="fill:#fff;opacity:0.30000000000000004"></path><path d="M191.45,171.65a1.22,1.22,0,0,1-.57.78Z" style="fill:#fff;opacity:0.30000000000000004"></path><path d="M196.62,160.56l1-1.15c.74-.19,1.56,0,1.31.62a9.48,9.48,0,0,1,8.54-.25c.1-.67.19-1.34.3-2a50.42,50.42,0,0,0-4.15-4.84l-1.55,1.92a59.55,59.55,0,0,0-4-6.27c-2.15,1.5-4.08,3.41-6.39,4.69a6,6,0,0,0-.64-1.13c5.52-5.83,11.85-19.28,11.85-19.28s8.13,15.74,17.89,21.55-5.2.86-5.2.86l2.61,4.76-8.14-1.83,1.95,2.67s6.83,5.31,10.09,6.71.43,3.94,2,4.13c1.16.15,3.94,2.5,5.32,3.71-1.87-.71-3.81-1.24-5.74-1.77a8.44,8.44,0,0,0-3.81-.43,13.72,13.72,0,0,0-2.19-2.94c-.25.84-.5,1.68-.74,2.52a1.29,1.29,0,0,0-1.76,1.17,23.86,23.86,0,0,0-7.22-6.75,5.5,5.5,0,0,1-1.07,4.51,4.6,4.6,0,0,0-3-4c-1.65-.46-3.69.86-3.58,2.54-.28-1.57-2.82-1.51-4.23-.6s-2.94,2.11-4.37,1.63a.82.82,0,0,1-.19-.09.51.51,0,0,1-.17-.07.26.26,0,0,1,0,.1,44.28,44.28,0,0,1-5.69.66C182.89,172,196.62,160.56,196.62,160.56Z" style="fill:#fff;opacity:0.1"></path><path d="M243.75,220.78c-4.05-1.92-19.38-16.88-19.38-16.88H228l4.23,1.87-3.26-4.94,12,2.91s-2.28-1.87-3.57-2.91-5.21-4.83-5.87-5.39,4.24-1.06,2.28-2.32-6.83-4.27-8.13-6.14-9.93-8.94-10.39-9.33l.79.26c-1-.76-2-1.57-2.93-2.39,0,1.34,0,2.68,0,4l-2.77-3.45-1.09,3a2.79,2.79,0,0,0-3.68,2.48,8.6,8.6,0,0,1-5.47-2.41l-2.93,1.94-1-2.46-1.62,2.21a7.05,7.05,0,0,1-.25-3.32A17.1,17.1,0,0,1,189.6,181a1.57,1.57,0,0,1-1.46.14A.35.35,0,0,1,188,181a5.82,5.82,0,0,1-1.32,1.6l-6,7.37-2.91,5.49c.23-.1,4-1.72,6-2.31s-8.29,5.62-8.29,5.62l5.86-.68c.36-.23.73-.47,1.09-.73.29.79.59,1.59.87,2.38l.09.23.26-.07.3-.1,2.1-.61,7.54-2.22q-.07,1.65-.12,3.3a10.7,10.7,0,0,1,3.94-3.15c1.6-.57,3.7-.17,4.47,1.33a13.53,13.53,0,0,0,4.41-3.54q.25,3.59.49,7.18c-1.15-.38-2.08.92-3,1.73s-2.5.56-2.61-.26c-.53,3.08-4.5,4.47-7.73,4.31s-6.93-1.17-9.94.32a4.45,4.45,0,0,1-.22-1.4,9.28,9.28,0,0,1-3.22,3.37c-.4.26-.82.49-1.24.71L167,221.26l7-.48-2.43,5.78,4.3.54,6.1-5.84,2.28,5.52-1.88,4s5.46-2.54,8.4-4.2-4,7.15-4,7.15l15.92-6.61,0,4,.34-.19a9.8,9.8,0,0,1,1.93-1.52,5.38,5.38,0,0,1,5.07-.2c0-1.15,0-2.29,0-3.41l7.35,3.87-2.08-8.83,4.69,3.87s10,3.9,11.25,5-11.58-12.37-11.58-12.37a78.39,78.39,0,0,1,8.33,6.5c2.27,2.37,3.57-.4,3.57-.39s4.89,1.3,8.14,2.39-2.6-4.48-2.6-4.48S247.79,222.69,243.75,220.78Z" style="fill:#fff;opacity:0.1"></path><path d="M116.17,215s-7.08,6.76-3.15,5.42,9.83-2.86,9.83-2.88,1.58,3.32,4.33.47,10.06-7.86,10.06-7.86-15.57,16.21-14,14.94,13.59-6,13.59-6l5.67-4.68L140,225.09l8.88-4.67c0,18.19.55,40.85.45,54.19H158l-.3-52.55,19.24,8s-8.37-10.65-4.83-8.64,10.14,5.07,10.14,5.07l-2.27-4.8,2.75-6.68,7.38,7.06,5.2-.65-2.94-7,8.45.58-18.09-15.8L177,186.68l2.53,1.41,1,1.22.4-.46,9.27,5.18L183,186.92l7.48.87s-12.56-7.52-10-6.79,7.27,2.8,7.27,2.8l-3.54-6.63L173.3,163.64l12.46,4.28s-5.11-4.66-7.09-4.94-7.85-8.55-7.85-8.55a56,56,0,0,0,7.38.89c3.42.13-13.17-13.67-13.17-13.67l-3.25-3.7h6.41s1.06,2.17,2.63.87-.39-1.91-2.75-4.59,12.19,4.65,5.23-1.26-15.85-24.77-15.85-24.77-9.83,19-21.62,26,6.29,1.05,6.29,1.05L139,141l9.83-2.2L146.44,142s-8.25,6.42-12.18,8.12-.52,4.74-2.43,5-7.4,5.36-7.4,5.36l-4.33,3.13,10.22-1.34-6.68,6s10.22-3.62,11.4-3.75,7.47-2.26,7.47-2.26-11,9-12.58,11.27-7.47,5.91-9.83,7.43,3.54,2.11,2.75,2.8-5.5,5.28-7.08,6.52-4.32,3.51-4.32,3.51L126,190.32l-3.93,6,5.11-2.25h4.32S113,212.1,108.08,214.42,116.17,215,116.17,215Z" style="fill:#000000"></path><path d="M192.39,214.42l2.94,7-5.2.65L182.75,215,180,221.68l2.27,4.8s-6.6-3.06-10.14-5.07,4.82,8.64,4.82,8.64l-19.22-8v2.27l.28,50.28h-8.7c.11-13.34-.45-36-.45-54.19l-.81.43L140,225.08l2.52-10.66-5.66,4.68s-12,4.71-13.6,6,13.41-14.34,14-14.91c-.44.29-7.37,5.08-10,7.84s-4.33-.49-4.33-.47-5.89,1.55-9.83,2.88,3.15-5.42,3.15-5.42-11.55,1.54-8.75-.23a7.34,7.34,0,0,1,.66-.35c3.76-1.79,15.63-12.92,20.87-17.94,1.58-1.49,2.55-2.45,2.55-2.45h-4.32l-5.11,2.25,3.92-5.95-14.54,3.5s2.75-2.27,4.33-3.5c.37-.3.92-.78,1.54-1.35h0c2-1.84,4.92-4.65,5.52-5.17.79-.69-5.11-1.28-2.75-2.8s8.26-5.16,9.83-7.42,12.17-11,12.57-11.27c-.25.07-4.2,1.42-6.33,2a10.22,10.22,0,0,1-1.13.26c-1.18.13-11.4,3.74-11.4,3.74l6.68-6-10.22,1.35,4.32-3.14s5.51-5.12,7.41-5.36-1.51-3.29,2.43-5S146.44,142,146.44,142l2.36-3.22-1.22.27L139,141l3.15-5.74s-17.71,5.84-6.65-.83l.36-.22c11.79-7,21.63-26,21.63-26s8.88,18.87,15.84,24.77-7.59-1.43-5.23,1.26,4.32,3.29,2.75,4.59-2.63-.88-2.63-.88h-6.41l3.25,3.71s16.6,13.8,13.17,13.68a57.36,57.36,0,0,1-7.38-.9s1.86,2.63,3.85,5c1.53,1.81,3.13,3.46,4,3.58,1.91.27,6.78,4.66,7.08,4.94l-12.45-4.27,10.89,13.52.33.61,3.2,6c-.28-.12-4.79-2.07-7.26-2.79s10,6.79,10,6.79l-7.49-.87,7.14,7.11-9.27-5.17-.4.45-1-1.22L177,186.68l5.8,12.52L200.83,215Z" style="fill:#fff;opacity:0.1"></path><path d="M138.51,194.35,139,194C138.91,194.26,138.74,194.43,138.51,194.35Z" style="fill:#fff;opacity:0.5"></path><path d="M178.2,155.33a57.36,57.36,0,0,1-7.38-.9s1.86,2.63,3.85,5a12.82,12.82,0,0,1-1.62-.3c-4.2-1.14-6.6-5.44-8.55-9.35a20.39,20.39,0,0,1,.44,9.41c-.77-2.35-1.54-4.71-2.32-7.06l-.06,6.52a13.8,13.8,0,0,0-3.18-3.71A13.67,13.67,0,0,0,157,160.7a14.59,14.59,0,0,1-1.8-5.15c0,.9,0,1.82,0,2.73l-1.65-3.86c-.36,1.19-.73,2.37-1.1,3.56a2.11,2.11,0,0,0-1.73-1.65,9,9,0,0,0-2.56,4.09l.15-5.69a50.54,50.54,0,0,1-12.15,9.58,10.22,10.22,0,0,1-1.13.26c-1.18.13-11.4,3.74-11.4,3.74l6.68-6-10.22,1.35,4.32-3.14s5.51-5.12,7.41-5.36-1.51-3.29,2.43-5S146.44,142,146.44,142l2.36-3.22-1.22.27a20.77,20.77,0,0,1,8.36-4.32c.32-.08.76.14.77.34,1.42-2.16,2.83-4.33,4.24-6.49a14.15,14.15,0,0,1-7.18,4.25l-.7-4.35-8.51,5.29c-.37-1-.74-2.06-1.12-3.1a71.35,71.35,0,0,1-8,3.74l.36-.22c11.79-7,21.63-26,21.63-26s8.88,18.87,15.84,24.77-7.59-1.43-5.23,1.26,4.32,3.29,2.75,4.59-2.63-.88-2.63-.88h-6.41l3.25,3.71S181.63,155.45,178.2,155.33Z" style="fill:#fff;opacity:0.30000000000000004"></path><path d="M192.39,214.42l2.94,7-5.2.65L182.75,215,180,221.68l2.27,4.8s-6.6-3.06-10.14-5.07,4.82,8.64,4.82,8.64l-19.22-8v2.27a3.72,3.72,0,0,0-3.12-.73,2.07,2.07,0,0,0-.88-2.7l-2.12,2.49c-.6-1.53-1.22-3-1.82-4.58q-.84,1-1.74,2L140,225.08l2.52-10.66-5.66,4.68s-12,4.71-13.6,6,13.41-14.34,14-14.91c-.44.29-7.37,5.08-10,7.84s-4.33-.49-4.33-.47-5.89,1.55-9.83,2.88,3.15-5.42,3.15-5.42-11.55,1.54-8.75-.23a38,38,0,0,0,15.24-7.22l-2.07,5q7.64-3.37,15.26-6.72a4.84,4.84,0,0,0,.34,3,8.42,8.42,0,0,0,5-2.46,7.49,7.49,0,0,1,.08,4.88l5.58-2.92a14.56,14.56,0,0,0,5.84,6.37,21,21,0,0,1,2.64-7.75,41.19,41.19,0,0,1,8.06,5.6l2-3.16a8.38,8.38,0,0,0,9.8.88,1.82,1.82,0,0,1,1.7-2.16,35.41,35.41,0,0,0-8.1-10.52c-.78,1-1.58,2-2.36,3-.85-.55-1.71-1.09-2.57-1.63a3.87,3.87,0,0,1-2.86,2c-.8-2.19-1.61-4.39-2.41-6.59-.53,1.27-2.46,1-3.56.23s-2-2.08-3.36-2.3c-2.38-.39-4.09,2.55-6.49,2.86l-.81-4.65L139,194a.65.65,0,0,0-.21-.74,1.66,1.66,0,0,0-1.51.19l-8,3.81a4.7,4.7,0,0,1-.29-.82c1.58-1.49,2.55-2.45,2.55-2.45h-4.32l-5.11,2.25,3.92-5.95-14.54,3.5s2.75-2.27,4.33-3.5c.37-.3.92-.78,1.54-1.35h0q4.71-2.75,9.6-5.16l-1.17,2.88,9.3-7.34a21.92,21.92,0,0,0-5.2,9.2,57.69,57.69,0,0,0,10.55-9.8,12.25,12.25,0,0,0-1,5.85,7.33,7.33,0,0,0,6.23-3.23l.5,3.49a49.21,49.21,0,0,0,4.4-7.17c.13,1,.26,1.93.4,2.89.39,2,.77,4,1.16,6l3.84-6.16c.53,2,1,4.05,1.55,6.08a7,7,0,0,1,5.28,4.68c.57-1.15,1.14-2.29,1.72-3.43a11.63,11.63,0,0,0,7.26,3.1l-4.47-10.67c-.34,1.07-.66,2.15-1,3.22l-3.72-4.12-1.36,1.77a35.11,35.11,0,0,1-4.46-14.7c1.51.16,2.18,1.91,3.12,3.1s3.47,1.38,3.43-.13a48.41,48.41,0,0,1,10.18,6.9c-.05-1.64-.09-3.28-.13-4.93a17.65,17.65,0,0,0,11.22,6.44l3.2,6c-.28-.12-4.79-2.07-7.26-2.79s10,6.79,10,6.79l-7.49-.87,7.14,7.11-9.27-5.17-.4.45-1-1.22L177,186.68l5.8,12.52L200.83,215Z" style="fill:#fff;opacity:0.30000000000000004"></path><path d="M142.44,211.08s8.83,8.43,3.93,6.76-12.28-3.57-12.28-3.6-2,4.15-5.4.59-12.16-9.54-12.54-9.8c.57.59,19.39,20.2,17.46,18.64s-17-7.48-17-7.48l-7.07-5.84,3.15,13.32-11.09-5.83v1.56c0,23.49-.79,39.93-.52,55.21H90.2l.35-53.24v-1.48l-24,10s10.44-13.3,6-10.79-12.65,6.33-12.65,6.33l2.83-6-3.43-8.33-9.21,8.81-6.5-.81,3.68-8.73-10.55.73,12.81-11.2,9.77-8.53,6.22-13.46,1-2.17-3.17,1.76L62.18,179l-.5-.57L50.11,184.9,59,176l-9.34,1.08s15.69-9.39,12.51-8.47-9.08,3.49-9.08,3.49l4.42-8.27,4.13-5.13L71.12,147l-15.55,5.33.55-.49c1.6-1.41,6.26-5.39,8.3-5.67,2.47-.35,9.79-10.66,9.79-10.66A69.94,69.94,0,0,1,65,136.58c-2.11.07,1.89-4.11,6.48-8.34s10-8.73,10-8.73l4.06-4.63h-8s-1.33,2.71-3.29,1.1.49-2.39,3.43-5.74c2-2.31-6,1.33-8.29,1.4-1,0-.92-.68,1.77-3C79.81,101.3,90.9,77.75,90.9,77.75s12.27,23.74,27,32.49c7.63,4.54,5.24,4.73,1.17,3.84-3.79-.8-9-2.53-9-2.53l3.94,7.18L101.7,116l2.94,4s8.29,6.45,13.55,9.31c.6.32,1.17.6,1.67.83,4.91,2.12.64,5.92,3,6.23s9.25,6.69,9.25,6.69l5.4,3.91-12.76-1.67,8.34,7.5s-12.76-4.52-14.23-4.68a9.77,9.77,0,0,1-1.68-.39c-2.68-.75-7.27-2.3-7.63-2.42.55.45,13.76,11.28,15.69,14.06s9.32,7.38,12.27,9.27-4.42,2.64-3.44,3.49,6.88,6.6,8.84,8.15,5.4,4.37,5.4,4.37l-18.17-4.37,4.92,7.44-6.39-2.81H123.3s3.42,3.35,8,7.63c7.3,6.83,17.48,16.05,21.24,17.82C158.64,213.24,142.44,211.08,142.44,211.08Z" style="fill:#000000"></path><path d="M78.44,128.53a18.3,18.3,0,0,0,13.23-5.93l-8.3,9.63c-.33-.47-.66-1-1-1.44A14.36,14.36,0,0,0,75.73,140l6.83-4.1c-6.19,8.33-17.87,10-26.44,15.88,1.6-1.41,6.26-5.39,8.3-5.67,2.47-.35,9.79-10.66,9.79-10.66A69.94,69.94,0,0,1,65,136.58c-2.11.07,1.89-4.11,6.48-8.34A14.55,14.55,0,0,1,78.44,128.53Z" style="fill:#fff;opacity:0.5"></path><path d="M101.18,110.59A39.81,39.81,0,0,1,92,96.23q-.51,6.4-1,12.8a51.63,51.63,0,0,1-4.11-8.46,15.92,15.92,0,0,1-7.21,8.64c1-3.19,1.93-6.36,2.9-9.54-4.44,5.19-7.8,9.19-13.15,12-1,0-.92-.68,1.77-3C79.81,101.3,90.9,77.75,90.9,77.75s12.27,23.74,27,32.49c7.63,4.54,5.24,4.73,1.17,3.84-6.1-2.35-11.8-5.62-14.72-11.29-.51,1.26-2.38.08-3-1.11A30.24,30.24,0,0,1,101.18,110.59Z" style="fill:#fff;opacity:0.5"></path><path d="M124.77,145.29l8.34,7.5s-12.76-4.52-14.23-4.68a9.77,9.77,0,0,1-1.68-.39,22,22,0,0,1-5.52-6.85l-1,2.7a8.16,8.16,0,0,0-7.54-3.87L96.83,135A18.09,18.09,0,0,1,95,122.58a14.28,14.28,0,0,1,5.19,5.94,13.09,13.09,0,0,1-.16-6.86,155.79,155.79,0,0,1,12.1,10.58c0-1.74,0-3.48.07-5.22a18,18,0,0,0,6.77,4.69l-.81-2.41c.6.32,1.17.6,1.67.83,4.91,2.12.64,5.92,3,6.23s9.25,6.69,9.25,6.69l5.4,3.91Z" style="fill:#fff;opacity:0.5"></path><path d="M133.51,186.31a124.6,124.6,0,0,1-15.08-5.83c-.34.62-.67,1.26-1,1.89a4.1,4.1,0,0,1-1.74-1.45l-3.22,5.47a44.06,44.06,0,0,0-5-8.92c-.72,1.92-1.45,3.85-2.18,5.77a52.31,52.31,0,0,1-6.18-7,22,22,0,0,0-6.29,9.45c-1.15-1.89.77-5.24-1.24-6.16-1.15-.53-2.38.48-3.22,1.41-.25-1-.51-2-.76-2.93a2.36,2.36,0,0,0-2.45,1.32l-.84-1.68a32.79,32.79,0,0,1-7.36,3.65,15.36,15.36,0,0,1,.66-7.75l-5,2.9a4.53,4.53,0,0,1,.11-2.93,27.84,27.84,0,0,0-7.09,4.32l1-2.17-3.17,1.76L62.18,179l-.5-.57L50.11,184.9,59,176l-9.34,1.08s15.69-9.39,12.51-8.47-9.08,3.49-9.08,3.49l4.42-8.27,4.13-5.13a3.07,3.07,0,0,1,.18,1c8.57-1.34,16.34-8.56,22.72-14q-2.37,5.6-4.72,11.19a5.24,5.24,0,0,0,2.85-2c.13,1,.26,2,.39,3a21.13,21.13,0,0,0,4.11-4c-1,6.52-3.24,12.76-5.47,19a32.21,32.21,0,0,0,8.6-11.69A75.34,75.34,0,0,0,89,169.48a4.9,4.9,0,0,0,1.94-2.19,11.45,11.45,0,0,0,1.77,6c2.13-1,2.91-3.64,3-6s-.18-4.81.74-7a55.6,55.6,0,0,0,5.53,11.5,44.93,44.93,0,0,0,.15-9,78.07,78.07,0,0,0,12.71,14.91,27.42,27.42,0,0,0-.55-6.88c2,1.23,3.38,3.33,4.91,5.16s3.41,3.44,5.67,3.54A49.42,49.42,0,0,0,133.51,186.31Z" style="fill:#fff;opacity:0.5"></path><path d="M125.17,179.57h-.29c-.76-.74-1.49-1.5-2.2-2.28Z" style="fill:#fff;opacity:0.5"></path><path d="M142.44,211.08s8.83,8.43,3.93,6.76-12.28-3.57-12.28-3.6-2,4.15-5.4.59-12.16-9.54-12.54-9.8c.57.59,19.39,20.2,17.46,18.64s-17-7.48-17-7.48l-7.07-5.84,3.15,13.32-11.09-5.83v1.56a6.93,6.93,0,0,1-.66-2.72,62.43,62.43,0,0,1-2.11,10,25.5,25.5,0,0,1-.23-6.11c-.21.73-.41,1.47-.63,2.2a4.66,4.66,0,0,1-1.73-3.34l-2.7,4.81-.21-5.5a11.64,11.64,0,0,0-2.79,2.59v-1.48l-24,10s10.44-13.3,6-10.79-12.65,6.33-12.65,6.33l2.83-6-3.43-8.33-9.21,8.81-6.5-.81,3.68-8.73-10.55.73,12.81-11.2a16.15,16.15,0,0,1,.1,4.55,3.63,3.63,0,0,1,2.38.74l9.16-6.47c-.76,1.85-1.53,3.71-2.29,5.58l7.32-1.71q.23,3.21.47,6.42a4,4,0,0,0,2.85-.75,1.51,1.51,0,1,0,2.86.79c.49,1,1,1.93,1.44,2.9a60.67,60.67,0,0,0,7.22-11.36q-.21,6-.43,12a1.41,1.41,0,0,1,2.06,1.36c.45-1.3,1.08-2.71,2.34-3.27s3.15.55,2.72,1.86a4.44,4.44,0,0,0,2-3.53L93,212.87a17.17,17.17,0,0,0,1.89-4.56c.68,1,1.35,2,2,2.94.21-3.27.26-6.55.19-9.81l4.39,6.87a25.59,25.59,0,0,1,1.59-5.22,14.56,14.56,0,0,0,3.82,4l.9-1.64a5.42,5.42,0,0,1,2,1.74,39.47,39.47,0,0,0-1.35-9,59.2,59.2,0,0,0,6.57,12.25q-.33-5.81-.67-11.62a17.78,17.78,0,0,0,4.87,5.86c.24-.85.49-1.71.74-2.57a22.92,22.92,0,0,1,6.34,4.71,5.8,5.8,0,0,0,1.29,1.14,5.09,5.09,0,0,0,1.94.44l4.19.4A12.67,12.67,0,0,0,131.09,198c.72.68,1.46,1.36,2.18,2.05a21.26,21.26,0,0,1-2-7.5c7.3,6.83,17.48,16.05,21.24,17.82C158.64,213.24,142.44,211.08,142.44,211.08Z" style="fill:#fff;opacity:0.5"></path><path d="M460.48,216.8s4.7,6.63,2,5.32-6.7-2.81-6.7-2.83-1.17,3.26-3,.46a70.69,70.69,0,0,0-6.72-7.72s10.29,15.93,9.24,14.68-9.21-5.89-9.21-5.89l-3.78-4.6,1.45,10.49-6-4.59c-.49,17.87-1.48,40.13-1.77,53.23h-6l1.61-51.62-13.47,7.85s6.05-10.46,3.55-8.49-7.12,5-7.12,5l1.7-4.73-1.72-6.55-5.28,6.93-3.57-.64,2.22-6.87-5.84.58L415,201.28,419.34,189l-1.78,1.39-.71,1.19-.26-.44-6.53,5.08,5.11-7-5.18.85s8.86-7.39,7.09-6.67a51.41,51.41,0,0,0-5.09,2.75l2.62-6.51,7.87-13.29-8.71,4.21s3.65-4.59,5-4.87,5.63-8.39,5.63-8.39a28.16,28.16,0,0,1-5.11.88c-2.36.12,9.45-13.44,9.45-13.44l2.34-3.63h-4.42s-.79,2.13-1.84.86.33-1.88,2-4.52-8.52,4.57-3.56-1.23,11.58-24.33,11.58-24.33,6.26,18.68,14.21,25.56-4.37,1-4.37,1l2,5.64L440,142l1.54,3.16s5.52,6.3,8.18,8,.23,4.67,1.54,4.91,5,5.26,5,5.26l2.9,3.08-7-1.32,4.44,5.9s-6.95-3.55-7.76-3.67a50.13,50.13,0,0,1-5.08-2.23s7.34,8.85,8.37,11.08,5,5.8,6.57,7.29-2.49,2.08-2,2.75,3.65,5.19,4.7,6.41S464.3,196,464.3,196l-9.93-3.44,2.55,5.86-3.47-2.22h-3s12.29,17.76,15.6,20S460.48,216.8,460.48,216.8Z" style="fill:#000000"></path><path d="M408,216.23l-2.22,6.86,3.57.64,5.28-6.94,1.72,6.57-1.7,4.71s4.63-3,7.12-5-3.55,8.49-3.55,8.49l13.47-7.85-.07,2.23L430,275.36h6c.28-13.11,1.28-35.36,1.77-53.24l.54.42,5.45,4.16-1.45-10.47,3.78,4.59s8.16,4.63,9.21,5.88-8.86-14.09-9.23-14.65a69.37,69.37,0,0,1,6.71,7.7c1.82,2.8,3-.48,3-.46s4,1.52,6.69,2.83-2-5.33-2-5.33,7.92,1.52,6-.22a4,4,0,0,0-.45-.34c-2.54-1.76-10.42-12.69-13.91-17.63-1-1.46-1.69-2.41-1.69-2.41h3l3.47,2.22-2.55-5.85L464.3,196s-1.84-2.22-2.89-3.43c-.25-.3-.61-.76-1-1.33h0c-1.35-1.81-3.27-4.56-3.67-5.07-.52-.68,3.56-1.26,2-2.75s-5.55-5.08-6.57-7.3S444,165.35,443.74,165c.17.07,2.86,1.4,4.32,2a4.56,4.56,0,0,0,.77.26c.81.13,7.75,3.67,7.75,3.67l-4.44-5.9,7,1.32-2.9-3.08s-3.66-5-5-5.26,1.13-3.24-1.54-4.91-8.18-8-8.18-8L440,142l.83.27,5.89,1.9-2-5.64s12,5.73,4.61-.82l-.25-.21c-7.93-6.9-14.2-25.58-14.2-25.58s-6.63,18.54-11.58,24.34,5.26-1.41,3.57,1.24-3.07,3.23-2,4.5,1.84-.86,1.84-.86h4.42l-2.34,3.64s-11.81,13.56-9.44,13.44a29.38,29.38,0,0,0,5.11-.88s-1.36,2.58-2.79,4.89c-1.1,1.77-2.25,3.39-2.85,3.51-1.33.26-4.8,4.58-5,4.85l8.69-4.2-7.87,13.29-.24.6L412,186.14a50.34,50.34,0,0,1,5.08-2.74c1.77-.73-7.09,6.66-7.09,6.66l5.18-.85-5.11,7,6.53-5.08.26.45.7-1.2,1.79-1.39L415,201.28l-12.89,15.51Z" style="fill:#fff;opacity:0.1"></path><path d="M445.63,196.51l-.31-.31C445.36,196.42,445.47,196.59,445.63,196.51Z" style="fill:#fff;opacity:0.5"></path><path d="M419.33,158.17a29.38,29.38,0,0,0,5.11-.88s-1.36,2.58-2.79,4.89a6.54,6.54,0,0,0,1.13-.31c2.92-1.11,4.69-5.34,6.14-9.18a28.48,28.48,0,0,0-.56,9.25c.6-2.32,1.19-4.63,1.79-6.94,0,2.14-.09,4.27-.13,6.41a13.9,13.9,0,0,1,2.29-3.65,16.79,16.79,0,0,1,1.46,5.69,19.19,19.19,0,0,0,1.37-5.06c0,.89,0,1.78,0,2.68l1.23-3.79c.22,1.17.44,2.33.67,3.5a1.88,1.88,0,0,1,1.23-1.62,9.73,9.73,0,0,1,1.66,4c0-1.86,0-3.72.05-5.58a38.35,38.35,0,0,0,8.12,9.4,4.56,4.56,0,0,0,.77.26c.81.13,7.75,3.67,7.75,3.67l-4.44-5.9,7,1.32-2.9-3.08s-3.66-5-5-5.26,1.13-3.24-1.54-4.91-8.18-8-8.18-8L440,142l.83.27a12.92,12.92,0,0,0-5.64-4.24.44.44,0,0,0-.54.33l-2.75-6.38a9.44,9.44,0,0,0,4.83,4.18l.6-4.28c1.91,1.74,3.82,3.48,5.73,5.2l.85-3a43.58,43.58,0,0,0,5.4,3.67l-.25-.21c-7.93-6.9-14.2-25.58-14.2-25.58s-6.63,18.54-11.58,24.34,5.26-1.41,3.57,1.24-3.07,3.23-2,4.5,1.84-.86,1.84-.86h4.42l-2.34,3.64S417,158.29,419.33,158.17Z" style="fill:#fff;opacity:0.30000000000000004"></path><path d="M408,216.23l-2.22,6.86,3.57.64,5.28-6.94,1.72,6.57-1.7,4.71s4.63-3,7.12-5-3.55,8.49-3.55,8.49l13.47-7.85-.07,2.23c.68-.6,1.44-1.07,2.17-.71a2.57,2.57,0,0,1,.67-2.66c.47.81.93,1.63,1.4,2.45l1.38-4.5c.36.69.74,1.35,1.14,2l5.45,4.16-1.45-10.47,3.78,4.59s8.16,4.63,9.21,5.88-8.86-14.09-9.23-14.65a69.37,69.37,0,0,1,6.71,7.7c1.82,2.8,3-.48,3-.46s4,1.52,6.69,2.83-2-5.33-2-5.33,7.92,1.52,6-.22a23.13,23.13,0,0,1-10.32-7.09c.43,1.64.87,3.29,1.3,4.94l-10.34-6.6a6.58,6.58,0,0,1-.32,3,5.23,5.23,0,0,1-3.36-2.43,10.4,10.4,0,0,0-.19,4.8l-3.77-2.87a14.13,14.13,0,0,1-4.19,6.26,26.84,26.84,0,0,0-1.61-7.61,31.7,31.7,0,0,0-5.71,5.49c-.42-1-.85-2.06-1.27-3.1-1.86,2.34-4.77,2.7-6.77.86.2-1-.39-2.13-1.12-2.12a37.33,37.33,0,0,1,5.87-10.33l1.54,2.94,1.82-1.6A2.81,2.81,0,0,0,430,203c.61-2.16,1.23-4.32,1.84-6.49.33,1.26,1.66,1,2.44.23s1.44-2,2.38-2.26c1.65-.38,2.75,2.51,4.4,2.81.23-1.52.45-3,.68-4.56l3.58,3.47a.81.81,0,0,1,.16-.72c.32-.26.72,0,1,.18l5.42,3.74a5.24,5.24,0,0,0,.22-.8c-1-1.46-1.69-2.41-1.69-2.41h3l3.47,2.22-2.55-5.85L464.3,196s-1.84-2.22-2.89-3.43c-.25-.3-.61-.76-1-1.33h0q-3.18-2.68-6.48-5.06c.24.94.48,1.88.73,2.82l-6.21-7.21a24.6,24.6,0,0,1,3.33,9,48.66,48.66,0,0,1-7-9.63,16.43,16.43,0,0,1,.57,5.75c-1.69.08-3.34-1.17-4.22-3.17l-.44,3.43a54.56,54.56,0,0,1-2.83-7.05c-.12,1-.23,1.89-.35,2.84-.33,2-.64,4-1,6L434,182.87c-.42,2-.82,4-1.23,6-1.69.45-3.19,2.29-3.77,4.6-.36-1.12-.72-2.25-1.09-3.37a7.3,7.3,0,0,1-5.08,3.05l3.36-10.48.6,3.16,2.68-4.05c.29.58.59,1.16.89,1.74a46.21,46.21,0,0,0,3.46-14.44c-1,.16-1.55,1.87-2.23,3s-2.43,1.35-2.35-.13a37.21,37.21,0,0,0-7.21,6.77c.08-1.61.15-3.22.23-4.83-2,3.41-4.89,5.7-7.91,6.32L412,186.14a50.34,50.34,0,0,1,5.08-2.74c1.77-.73-7.09,6.66-7.09,6.66l5.18-.85-5.11,7,6.53-5.08.26.45.7-1.2,1.79-1.39L415,201.28l-12.89,15.51Z" style="fill:#fff;opacity:0.30000000000000004"></path><path d="M51,242.06c-1.4,3.11-2.14,6.31-3.74,9.41s-1.46,4.55-1.11,7.62c.54,4.77-1,8.27-4.11,12.77-4.06,5.84.07,9.35-.84,15.14-.47,3-5.32,9.54-2.89,11,1.17.73,3.62.56,5,.85a14.86,14.86,0,0,1,5.34,2c3.6,2.41,3.25,7.67,6.1,10.41,29.39.64,300-42.63,300-42.63s-1.89-1.75-1.8-3.55-5.38-4.35-7.63-5.16-2.16-.28-4.28.06-2.68-.07-5.19-.95-7.32-3-11.47-4.85-7.67,4.46-10.45,6.51-4-.77-5.55-.86-6.89.93-11.49.65-3.83.27-6.69,4.39-5.71-1.11-5.71-1.11-3.45-.71-4.71-.8a4.79,4.79,0,0,0-1.47,0s-8.26-1.37-8.79-1.24-2.74-2.86-2.74-2.86-2.25-.12-3.39-.06a4.68,4.68,0,0,1-2.78-1.08c-.42-.35-3.42,2.14-6.4,2s-4.14-.35-5.67-.08-1.55.43-3.57,2-4.13-.49-10.8,0c0,0-6,2-8.94.94s-2.9-.46-2.9-.46a37.48,37.48,0,0,0-6.4-4.18c-2.51-1.06,0,0-1.11-.14s-4.22.83-6.44,4-3.84.69-6.84.72-5.82-1.46-6.46-2.29-1.45-3.4-9.17-1.6-8.76-6.72-12.54-7-3,6.07-5.55,3.87-1.7,1.66-3.14,6.5-2.76,1.11-3,0-5.52.05-9.52,2-6.32.11-8.15,0-2.72.83-3.88,1.13-11.27-1-11.51-1.76a11.65,11.65,0,0,0-1.13-2s-6.54-4-6-8.34-4.07,1.64-4.07,1.64-3.07-1.44-5.32-1-4.21,6.87-6.56,5.81-3.52-.69-8.21,2.8S91,264.31,90,264s-3.21-2.12-9.35-4-4.74.11-8-1.57-5.5-11-8.69-14.34c-2.65-2.76-7.43-5.68-12.78-2.59A2.86,2.86,0,0,1,51,242.06Z" style="fill:#000000"></path><path d="M51,242.06c-1.4,3.11-2.14,6.31-3.74,9.41s-1.46,4.55-1.11,7.62c.54,4.77-1,8.27-4.11,12.77-4.06,5.84.07,9.35-.84,15.14-.47,3-5.32,9.54-2.89,11,1.17.73,3.62.56,5,.85a14.86,14.86,0,0,1,5.34,2c3.6,2.41,3.25,7.67,6.1,10.41,29.39.64,300-42.63,300-42.63s-1.89-1.75-1.8-3.55-5.38-4.35-7.63-5.16-2.16-.28-4.28.06-2.68-.07-5.19-.95-7.32-3-11.47-4.85-7.67,4.46-10.45,6.51-4-.77-5.55-.86-6.89.93-11.49.65-3.83.27-6.69,4.39-5.71-1.11-5.71-1.11-3.45-.71-4.71-.8a4.79,4.79,0,0,0-1.47,0s-8.26-1.37-8.79-1.24-2.74-2.86-2.74-2.86-2.25-.12-3.39-.06a4.68,4.68,0,0,1-2.78-1.08c-.42-.35-3.42,2.14-6.4,2s-4.14-.35-5.67-.08-1.55.43-3.57,2-4.13-.49-10.8,0c0,0-6,2-8.94.94s-2.9-.46-2.9-.46a37.48,37.48,0,0,0-6.4-4.18c-2.51-1.06,0,0-1.11-.14s-4.22.83-6.44,4-3.84.69-6.84.72-5.82-1.46-6.46-2.29-1.45-3.4-9.17-1.6-8.76-6.72-12.54-7-3,6.07-5.55,3.87-1.7,1.66-3.14,6.5-2.76,1.11-3,0-5.52.05-9.52,2-6.32.11-8.15,0-2.72.83-3.88,1.13-11.27-1-11.51-1.76a11.65,11.65,0,0,0-1.13-2s-6.54-4-6-8.34-4.07,1.64-4.07,1.64-3.07-1.44-5.32-1-4.21,6.87-6.56,5.81-3.52-.69-8.21,2.8S91,264.31,90,264s-3.21-2.12-9.35-4-4.74.11-8-1.57-5.5-11-8.69-14.34c-2.65-2.76-7.43-5.68-12.78-2.59A2.86,2.86,0,0,1,51,242.06Z" style="fill:#fff;opacity:0.5"></path></g><g id="freepik--Road--inject-24"><path d="M33,282.45c1.17-.28,1.83-1.53,2.13-2.69a9.79,9.79,0,0,1,1.12-3.41A6.67,6.67,0,0,1,37.8,275a16.52,16.52,0,0,1,3.71-2.24,5.47,5.47,0,0,1,4.24,0c.28.13.57,0,.54-.27,10.31,2.11,14.24,8.56,24.55,5.34s12.26-4.07,20.61-3.16,8.83-.42,17.18,0,11.35-.91,16,0,16.4-.36,19.35-2.18,9.82-1.24,16.21-1.28,5.39-1,12.75,0,8.35,1,14.73-2,4.42-4.52,11.78-2.51a83.33,83.33,0,0,0,20.13,2.51c4.42,0,8,1,15.51-.95,5.53-1.46,11.46-1.53,17.14-1.6h.15c2.56,0,5.59-.44,8.11,0,1.32.24,2,1,3.22,1.51a10.82,10.82,0,0,0,5.41.57c2.48-.27,4.89-1,7.36-1.14,4.2-.27,8.34,1.09,12.55,1.09a57,57,0,0,1,6.66-.11c1.56.19,3.07.7,4.62,1a31,31,0,0,0,5.78.29q15.12-.12,30.22,1s-206.92,16.43-222.07,17.52l-38,2.7L51.93,292.8l-3.43.25c-.74,0-1.48.1-2.21.15-2.13.17-5.28,1.16-7.41,1.35" style="fill:#fff"></path><g style="clip-path:url(#freepik--clip-path--inject-24)"><path d="M336.3,270.83s-41.34,4.53-43.73,4.76l-.93.06c-1,.1-1.92.14-2.88.21l-9.43.68-30.95,2.21-41.94,3-46.77,3.34-45.44,3.26-38,2.7L51.93,292.8l-3.43.25c.52-5.88,2.91-13.32,7.77-11.79,1.88.6,3.62,1.74,5.58,1.94,2.34.23,4.55-.9,6.72-1.81,8.1-3.38,17.1-3.79,25.88-4.16l14.76-.6a228.47,228.47,0,0,1,23.26-.17c2.88.18,5.83.46,8.59-.37,1.8-.53,3.43-1.51,5.19-2.11a26.44,26.44,0,0,1,7.78-1l27.41-.74c2.79-.08,5.7-.19,8.13-1.56a29.06,29.06,0,0,1,3.48-2.11c2.12-.83,4.51-.25,6.72.25a97.23,97.23,0,0,0,38.34.64c4.73-.85,9.39-2,14.11-2.86h.15c2.56,0,5.59-.44,8.11,0,1.32.24,2,1,3.22,1.51a10.82,10.82,0,0,0,5.41.57c2.48-.27,4.89-1,7.36-1.14,4.2-.27,8.34,1.09,12.55,1.09a57,57,0,0,1,6.66-.11c1.56.19,3.07.7,4.62,1a31,31,0,0,0,5.78.29Q321.2,269.68,336.3,270.83Z" style="fill:#000000;opacity:0.4"></path></g><path d="M33,282.45c1.17-.28,1.83-1.53,2.13-2.69a9.79,9.79,0,0,1,1.12-3.41A6.67,6.67,0,0,1,37.8,275a16.52,16.52,0,0,1,3.71-2.24,5.47,5.47,0,0,1,4.24,0c.28.13.57,0,.54-.27,10.31,2.11,14.24,8.56,24.55,5.34s12.26-4.07,20.61-3.16,8.83-.42,17.18,0,11.35-.91,16,0,16.4-.36,19.35-2.18,9.82-1.24,16.21-1.28,5.39-1,12.75,0,8.35,1,14.73-2,4.42-4.52,11.78-2.51a83.33,83.33,0,0,0,20.13,2.51c4.42,0,8,1,15.51-.95,5.53-1.46,11.46-1.53,17.14-1.6h.15c2.56,0,5.59-.44,8.11,0,1.32.24,2,1,3.22,1.51a10.82,10.82,0,0,0,5.41.57c2.48-.27,4.89-1,7.36-1.14,4.2-.27,8.34,1.09,12.55,1.09a57,57,0,0,1,6.66-.11c1.56.19,3.07.7,4.62,1a31,31,0,0,0,5.78.29q15.12-.12,30.22,1s-206.92,16.43-222.07,17.52l-38,2.7L51.93,292.8l-3.43.25c-.74,0-1.48.1-2.21.15-2.13.17-5.28,1.16-7.41,1.35" style="fill:none;stroke:#263238;stroke-linecap:round;stroke-linejoin:round"></path><path d="M427,267.41C209.75,266.9,43.2,288.14,43.2,288.14s-21.27,15.48-8.53,19.15-4.32,13.1,2.18,18.16,23.94,12.19,12.27,17.83-26.61,28.87,0,37.5-1.19,15.55,2.78,29.39S68.38,442.94,131,442.94s49.34,6.62,68.48,11.51,60.17,6.12,86.41,6.25,19.16-9.45,35.22-9.45,71.12-.17,81.88-3.76-3.24-13.53,12.22-14.08,30.19-8.53,23.56-17.8-20.61-40.43-7.36-45.46,5.47-21.38,9-38.25,3.53-43-3.1-50.17,9.57-3.31,8.84-7.46S427,267.41,427,267.41Z" style="fill:#fff"></path><path d="M437.26,281.73c6.62,7.19,6.62,33.31,3.11,50.18s4.26,33.2-9,38.23.73,36.2,7.37,45.47-8.11,17.24-23.56,17.8l-.57,0c-14.55.79-1.05,10.51-11.66,14.06s-65.82,3.76-81.88,3.76-9,9.58-35.22,9.45-67.27-1.35-86.41-6.24S193.4,443,132,442.94h-1c-19.75,0-34.52-1.88-45.6-4.9-24-6.54-30.74-18.4-33.46-27.87-4-13.84,23.84-20.76-2.77-29.39s-11.67-31.87,0-37.5-5.78-12.78-12.29-17.83S47.41,311,34.67,307.29s8.53-19.15,8.53-19.15,135.45-17.27,321.35-20.29c20.24-.33,41.08-.49,62.41-.44,0,0,18.4,2.71,19.14,6.87S430.63,274.54,437.26,281.73Z" style="fill:#263238;opacity:0.2"></path><path d="M437.26,281.73c6.62,7.19,6.62,33.31,3.11,50.18s4.26,33.2-9,38.23.73,36.2,7.37,45.47-8.11,17.24-23.56,17.8l-.57,0c-14.55.79-1.05,10.51-11.66,14.06s-65.82,3.76-81.88,3.76-9,9.58-35.22,9.45-67.27-1.35-86.41-6.24S193.4,443,132,442.94h-1c-19.75,0-34.52-1.88-45.6-4.9l.7-9.66L363.5,268.19l1.05-.34c20.24-.33,41.08-.49,62.41-.44,0,0,18.4,2.71,19.14,6.87S430.63,274.54,437.26,281.73Z" style="fill:#000000"></path><g style="opacity:0.7000000000000001"><path d="M403,447.49c-10.76,3.6-65.82,3.76-81.88,3.76s-9,9.58-35.22,9.45-67.27-1.35-86.41-6.24S193.4,443,132,442.94L364.43,268.19H375.6l39,165.24C400.06,434.22,413.56,443.94,403,447.49Z" style="fill:#fff"></path></g><polyline points="416.32 440.71 375.6 268.19 364.44 268.19 124.62 448.49" style="fill:none;stroke:#263238;stroke-linecap:round;stroke-linejoin:round"></polyline><path d="M427,267.41C209.75,266.9,43.2,288.14,43.2,288.14" style="fill:none;stroke:#263238;stroke-linecap:round;stroke-linejoin:round"></path><line x1="86.06" y1="428.38" x2="363.5" y2="268.19" style="fill:none;stroke:#263238;stroke-linecap:round;stroke-linejoin:round"></line><path d="M88.59,446.5c-.1-2,1.82-3.51,3.75-3.93s3.93-.09,5.89-.26a11.81,11.81,0,0,0,4.27-1.24,2.72,2.72,0,0,0,1.58-1.64,2.38,2.38,0,0,0-1.1-2.24c-.69-.53-1.53-.88-2.17-1.48a3.83,3.83,0,0,1-.79-4.4c1.67-3.33,4.6-.57,6.81-2.36,1.72-1.39,1.18-5.05,2.79-6.86,3.34-3.75,32.76-7.28,42-6.48s.37-3.38-7.36-7.95-5.52-6.11-3.88-7.76,19.71-3.5,27.39-4.45-4-3.1-4.37-6.16,7.73-4.67,13-8.39,11.25-2.91,17.88-5.12,2.57-2.57.36-6.15,14.17-12.12,20.62-12,12.89-2.81,9.51-4.35,3.38-2.88,11.85-8,33.86-2.21,31.28-4.05-1.66-2.21.82-4,2.79-2-1.18-3-7.37.37-7.37-2.07.75-4.7,7.73-4.55,16.94-5.52,20.78-4.76-4.58-4.45-3.84-6.29c.63-1.57,5.65-1.37,6.94-1.44,2.95-.17,6.23.49,8.53-1.19a3,3,0,0,1,1.44-.41,94.61,94.61,0,0,1,17.65-.16c1.9.16,4.12.57,5.95,0-2.4-1.22-6.56-1-9.26-1.33-1.78-.24-6.4-.11-7.78-1.45-.83-.8-6.18.8-8.73-1.23s2.66-4,2.66-4,2.85-.21,2.63-1.34.59-2.27,7.37-3.08,12.73-4.26,9.88-5.73-1-2.52-.09-3,6.84-2.72,6.84-2.72,3-3,12.06-4.52,8.7-.41,5.36-2.57.06-1.1,8.44-2.57c3.75-.66-2.19-3,3-2.93s-.39-2.64,1.23-2.21a6.79,6.79,0,0,0,1.93,0,.36.36,0,0,1,.41-.23c.83.1,1.44-.51,2.17-.79a9.46,9.46,0,0,1,2.37-.38c1.15-.13,2.3-.26,3.45-.42a6.79,6.79,0,0,1-3.35-1,.48.48,0,0,1-.16-.63,1.75,1.75,0,0,1,1.73-.85,9.15,9.15,0,0,0,2.43-.45,8,8,0,0,1,2.58-.21,13.73,13.73,0,0,0,1.43,0c.5,0,1-.16,1.47-.23,1.9-.29,3.82-.34,5.72-.62a39.21,39.21,0,0,1,5.06-.7,14.18,14.18,0,0,1,1.84.1l1-.14c1-.13,3.56,0,4.25-.78-1.57-.42-3.31.19-4.92.07-1.12-.09-2.2-.47-3.32-.64-3.25-.47-6.74.9-9.78-.36a9.45,9.45,0,0,0-1.24-.5c-2-.51-3.94,1.32-5.94.94-1.49-.29-2.45-1.69-3.38-2.9a1.11,1.11,0,0,0-.6-.47,1,1,0,0,0-.7.16,5.69,5.69,0,0,1-2.7.89c-1,0-2.14-.56-3,0a6.67,6.67,0,0,0-1,1c-.94.85-2.36.74-3.63.7s-2.77.18-3.34,1.32c-.26.53-.27,1.18-.64,1.64a2.4,2.4,0,0,1-1.33.68,14.82,14.82,0,0,1-6.46.13,1.73,1.73,0,0,0-1.27.06,1.84,1.84,0,0,0-.54.9c-1.47,3.81-9.13,6.36-12.54,3.79-3-2.29-14.5,10.28-14.5,10.28l-9.49,2.17-3.34,2.69s-2-.33-10.8,3.45-2.47,4.41-6.94,6.54S262.5,304,262.5,304a96.81,96.81,0,0,1,12.31,0c5.66.46,0,3.88,0,3.88s-5.18,4-7.63,4.38-9.33,2.56-12.76,2.38-6.39,4.6-8.35,5.94-30.43,4.9-30.43,4.9,22.09.63,23.56.49-5.89,3.58-10.8,3.58-9.82,4.91-15.22,5.2-7.85,1.67-16.19,1.72-13.75,8.3-20.58,7.15-10.35,5.07-12.8,7.07-33.38,1.71-33.38,1.71L152.32,354c-9.33,6.85-3.44,8.37-12,16.11s-10.6,3.55-15.51,6-15.71,2-21.11,3.89-19.63,3-17.66,3.86,19.13,3.54,25.52,7.07-3,3.34-8.23,3.65-1.1,3.13-.12,5.28-3.93,3.25-17.17,5.68-15.91-.34-10.32,4.59c5.4,4.76-4.41,10.53-15.21,9.85s-5.89,9.67-5.89,9.67" style="fill:#fff"></path><g style="clip-path:url(#freepik--clip-path-2--inject-24)"><path d="M348.46,270a4,4,0,0,0-2.07.75Z" style="fill:#000000;opacity:0.4"></path><path d="M190.9,376.7c-5.28,1.15-10.09,1.13-14.49,4.2-5.32,3.72-13.41,5.33-13,8.4s12.06,5.21,4.37,6.16-25.76,2.79-27.39,4.44-3.86,3.18,3.88,7.76,16.56,8.75,7.36,7.95-38.61,2.73-42,6.48c-1.61,1.81-1.07,5.47-2.8,6.87-2.2,1.78-5.13-1-6.8,2.34a3.82,3.82,0,0,0,.79,4.4c.65.61,1.47.95,2.17,1.49a2.37,2.37,0,0,1,1.1,2.24,2.72,2.72,0,0,1-1.58,1.64,11.35,11.35,0,0,1-3.22,1.09c.53-1.78.2-3.26-3-4.17l-16.27-4.61,17.78-2.49A7.54,7.54,0,0,0,96,427.26c1.54-1.31,4.14.06,5.85-1s1-4.35-1-5.35-4.31-.6-6.49-.36-4.69.16-6.18-1.46a37.77,37.77,0,0,0,18.63-3.55,8.55,8.55,0,0,0,7.87-3.35l3.11-.49c2.16-1.37,2.41-4.76.81-6.76a6.82,6.82,0,0,0-7-1.95A44.22,44.22,0,0,1,128,397.13a4.67,4.67,0,0,1,2.87.23c1.27.68,1.67,2.27,2.4,3.51s2.63,2.16,3.52,1-.14-2.63.38-3.83a3.4,3.4,0,0,1,2.41-1.54l17.18-4.84c-2.49.34-5.07-1.69-6.49-3.95-1.63-2.59-2.61-5.7-5-7.65-5.79-4.77-15.45.5-21.75-3.41l-.37-.24c0-3,4.32-3.09,7.29-3.35a10.93,10.93,0,0,0,9-6.81,9.21,9.21,0,0,0,1.6,3.15,9.67,9.67,0,0,0,16-.61c-.28,3.62,3.76,6.21,7.39,6.39s7.21-1.15,10.84-1.11C180.55,374.16,186,376.93,190.9,376.7Z" style="fill:#000000;opacity:0.4"></path><path d="M247.92,340c3.08.07,6.44.48,9.06,1.92-7.19.12-16,.63-20.35,3.28-8.48,5.15-15.22,6.5-11.84,8s-3.07,4.45-9.52,4.35-22.82,8.44-20.62,12,5.95,3.91.38,5.89a19.94,19.94,0,0,0-5.46-4.85,7.21,7.21,0,0,1,3.78-1.92A10.38,10.38,0,0,0,182.17,365c1.21-3.54-2.51-7.17-6.24-7.41s-7.17,1.81-10.36,3.76c1-2.78-2.73-4.93-5.69-4.94s-6.44.6-8.41-1.62a32.32,32.32,0,0,0,16.18-2.84c2.75-1.27,5.69-3,8.63-2.19,3.45.93,6,5.13,9.47,4.4,2.36-.49,5.27-3,6.54-.93.42.66.32,1.54.72,2.21.76,1.28,2.65,1,4.09.64a52.5,52.5,0,0,1,22.59-.82l-4.15-2.42a8.61,8.61,0,0,0,4-1.4c1.13-.89,1.71-2.65.85-3.81-.7-1-2-1.15-3.2-1.26l-21.29-2a47.66,47.66,0,0,0,19.27-2.58c1.77-.62,3.72-1.34,5.44-.61a22.71,22.71,0,0,1,2.48,1.65c4,2.31,8.6-1.6,11.53-5.14C238.42,340.2,243.36,340,247.92,340Z" style="fill:#000000;opacity:0.4"></path><path d="M393.31,267.25c-.7.74-3.27.65-4.27.78l-1,.13c-.62-.05-1.23-.09-1.85-.08a35.85,35.85,0,0,0-5.05.69c-1.9.28-3.82.33-5.72.62a14.71,14.71,0,0,1-1.46.22,13.78,13.78,0,0,1-1.44,0,8,8,0,0,0-2.58.21,8.76,8.76,0,0,1-2.43.45,1.75,1.75,0,0,0-1.73.85.47.47,0,0,0,.17.64,7,7,0,0,0,3.34,1c-1.15.16-2.3.29-3.46.43a9.44,9.44,0,0,0-2.36.37c-.73.28-1.34.89-2.17.79a.35.35,0,0,0-.41.23,7.12,7.12,0,0,1-1.92,0c-1.62-.44,4,2.28-1.24,2.21s.72,2.28-3,2.93c-8.38,1.47-11.79.4-8.45,2.57s3.71,1-5.35,2.57-12.06,4.52-12.06,4.52-5.94,2.2-6.84,2.72-2.77,1.56.09,3-3.09,4.92-9.88,5.73-7.59,1.94-7.37,3.08-2.63,1.34-2.63,1.34-5.2,2-2.65,4,7.89.43,8.72,1.23c1.38,1.34,6,1.21,7.78,1.45,2.7.37,6.86.11,9.26,1.33-1.84.54-4.05.13-5.95,0a94.61,94.61,0,0,0-17.65.16,2.84,2.84,0,0,0-1.44.41c-2.3,1.69-5.57,1-8.53,1.19-1.29.07-6.31-.13-6.94,1.44-.74,1.85,7.67,7.05,3.84,6.29s-13.79,4.9-20.77,4.76-7.73,2.11-7.73,4.55,3.39,1.08,7.36,2.08,3.66,1.21,1.18,3-3.39,2.16-.81,4c.8.57-1.13.68-4.42.71l0-3.28c0-4.83-10.38-.64-10.64-5.66a4.47,4.47,0,0,1,1.86-3.82l-14.21-3.79a110.82,110.82,0,0,1,12.9-7.54,4.36,4.36,0,0,0,5.24,4.49c1-.28,1.92-1,2.94-1.22,2.83-.78,7.13.87,8-1.93l1.7,1.93,11.9-1.33a7.06,7.06,0,0,0-4.31-3.66l6-2.39a37.15,37.15,0,0,0-13.34-2.63c3.29-.24,5.8-2.89,8.32-5s6.09-4,9-2.38c-.91,1.56.76,3.6,2.56,3.75s3.46-.88,5-1.88c.62-.4,1.27-1.34.66-1.75a3.76,3.76,0,0,0,4.45-2.15l-4.71-1,4.41-2.23-12.61-1.56c3.56-1.79,6.3-6.22,10.23-5.52,1.57.27,2.86,1.37,4.36,1.91s3.63.17,4-1.38c.06,1.16.11,2.32.16,3.49a14.92,14.92,0,0,0,8.82-2.16c-.32.78-.62,1.56-.94,2.34h3.44c0-1.24,0-2.48,0-3.73L314,291.3a20.2,20.2,0,0,0,5.44-1.79,8.87,8.87,0,0,0-6.23-3.19,5.75,5.75,0,0,1,7.55-3.16c-.43-2.53,3.51-3.17,5.87-2.19s5.58,2.22,7.06.13a3.3,3.3,0,0,0-3-1.68,123.58,123.58,0,0,1,19.14-.67l-1.92-2.48,4.05-.15a4.05,4.05,0,0,0-.48-5.1,3.94,3.94,0,0,0-3-1l8.45-3.08-2.05-.82a3.09,3.09,0,0,0,1.81-.69,6.6,6.6,0,0,1,1-1c.92-.53,2.09,0,3.06,0a5.58,5.58,0,0,0,2.69-.89,1,1,0,0,1,.7-.16,1.15,1.15,0,0,1,.6.47c.93,1.2,1.89,2.61,3.39,2.9,2,.38,4-1.45,5.93-.94a8.24,8.24,0,0,1,1.24.5c3,1.26,6.52-.11,9.78.36,1.12.17,2.2.55,3.32.63C390,267.44,391.73,266.83,393.31,267.25Z" style="fill:#000000;opacity:0.4"></path></g><path d="M88.59,446.5c-.1-2,1.82-3.51,3.75-3.93s3.93-.09,5.89-.26a11.81,11.81,0,0,0,4.27-1.24,2.72,2.72,0,0,0,1.58-1.64,2.38,2.38,0,0,0-1.1-2.24c-.69-.53-1.53-.88-2.17-1.48a3.83,3.83,0,0,1-.79-4.4c1.67-3.33,4.6-.57,6.81-2.36,1.72-1.39,1.18-5.05,2.79-6.86,3.34-3.75,32.76-7.28,42-6.48s.37-3.38-7.36-7.95-5.52-6.11-3.88-7.76,19.71-3.5,27.39-4.45-4-3.1-4.37-6.16,7.73-4.67,13-8.39,11.25-2.91,17.88-5.12,2.57-2.57.36-6.15,14.17-12.12,20.62-12,12.89-2.81,9.51-4.35,3.38-2.88,11.85-8,33.86-2.21,31.28-4.05-1.66-2.21.82-4,2.79-2-1.18-3-7.37.37-7.37-2.07.75-4.7,7.73-4.55,16.94-5.52,20.78-4.76-4.58-4.45-3.84-6.29c.63-1.57,5.65-1.37,6.94-1.44,2.95-.17,6.23.49,8.53-1.19a3,3,0,0,1,1.44-.41,94.61,94.61,0,0,1,17.65-.16c1.9.16,4.12.57,5.95,0-2.4-1.22-6.56-1-9.26-1.33-1.78-.24-6.4-.11-7.78-1.45-.83-.8-6.18.8-8.73-1.23s2.66-4,2.66-4,2.85-.21,2.63-1.34.59-2.27,7.37-3.08,12.73-4.26,9.88-5.73-1-2.52-.09-3,6.84-2.72,6.84-2.72,3-3,12.06-4.52,8.7-.41,5.36-2.57.06-1.1,8.44-2.57c3.75-.66-2.19-3,3-2.93s-.39-2.64,1.23-2.21a6.79,6.79,0,0,0,1.93,0,.36.36,0,0,1,.41-.23c.83.1,1.44-.51,2.17-.79a9.46,9.46,0,0,1,2.37-.38c1.15-.13,2.3-.26,3.45-.42a6.79,6.79,0,0,1-3.35-1,.48.48,0,0,1-.16-.63,1.75,1.75,0,0,1,1.73-.85,9.15,9.15,0,0,0,2.43-.45,8,8,0,0,1,2.58-.21,13.73,13.73,0,0,0,1.43,0c.5,0,1-.16,1.47-.23,1.9-.29,3.82-.34,5.72-.62a39.21,39.21,0,0,1,5.06-.7,14.18,14.18,0,0,1,1.84.1l1-.14c1-.13,3.56,0,4.25-.78-1.57-.42-3.31.19-4.92.07-1.12-.09-2.2-.47-3.32-.64-3.25-.47-6.74.9-9.78-.36a9.45,9.45,0,0,0-1.24-.5c-2-.51-3.94,1.32-5.94.94-1.49-.29-2.45-1.69-3.38-2.9a1.11,1.11,0,0,0-.6-.47,1,1,0,0,0-.7.16,5.69,5.69,0,0,1-2.7.89c-1,0-2.14-.56-3,0a6.67,6.67,0,0,0-1,1c-.94.85-2.36.74-3.63.7s-2.77.18-3.34,1.32c-.26.53-.27,1.18-.64,1.64a2.4,2.4,0,0,1-1.33.68,14.82,14.82,0,0,1-6.46.13,1.73,1.73,0,0,0-1.27.06,1.84,1.84,0,0,0-.54.9c-1.47,3.81-9.13,6.36-12.54,3.79-3-2.29-14.5,10.28-14.5,10.28l-9.49,2.17-3.34,2.69s-2-.33-10.8,3.45-2.47,4.41-6.94,6.54S262.5,304,262.5,304a96.81,96.81,0,0,1,12.31,0c5.66.46,0,3.88,0,3.88s-5.18,4-7.63,4.38-9.33,2.56-12.76,2.38-6.39,4.6-8.35,5.94-30.43,4.9-30.43,4.9,22.09.63,23.56.49-5.89,3.58-10.8,3.58-9.82,4.91-15.22,5.2-7.85,1.67-16.19,1.72-13.75,8.3-20.58,7.15-10.35,5.07-12.8,7.07-33.38,1.71-33.38,1.71L152.32,354c-9.33,6.85-3.44,8.37-12,16.11s-10.6,3.55-15.51,6-15.71,2-21.11,3.89-19.63,3-17.66,3.86,19.13,3.54,25.52,7.07-3,3.34-8.23,3.65-1.1,3.13-.12,5.28-3.93,3.25-17.17,5.68-15.91-.34-10.32,4.59c5.4,4.76-4.41,10.53-15.21,9.85s-5.89,9.67-5.89,9.67" style="fill:none;stroke:#263238;stroke-linecap:round;stroke-linejoin:round"></path><path d="M421.05,265c-2.21.17-7-1.64-9.94-1.81s-4.78,2.19-5.35,1.81-3.67-.72-6.93,0c-5,1.1-2.63,1.13-6.49,1.8s-4.24,1-1.48,1.62,4.4-.66,6.25.45,2.59,1.85.93,2.22a58.33,58.33,0,0,1-9,1.47c-3.36.18,4.71,1.1,8,.92a10.58,10.58,0,0,1,5.72,1.17c.74.3-6.65,1.73-5.72,2.21s8.3-.06,12.35.95,3.49,3.24,5.89,4,6.44,1.1,7.91,4c-.13.63.48.71,1.12.81s1.29-.08,1.93,0c1.93.09,3.77,2,5.5,1.17" style="fill:#fff"></path><g style="clip-path:url(#freepik--clip-path-3--inject-24)"><path d="M431.81,287.71c-1.73.84-3.57-1.08-5.5-1.17-.65,0-1.29.14-1.93,0s-1.26-.18-1.12-.8c-1.47-2.95-5.52-3.33-7.92-4s-1.83-3-5.89-4-11.41-.46-12.34-.95,6.45-1.91,5.72-2.21a10.48,10.48,0,0,0-5.72-1.17c-3.33.18-11.4-.74-8-.92a58.55,58.55,0,0,0,9-1.47c1.66-.37.92-1.11-.93-2.22s-3.49.2-6.24-.45-2.4-.95,1.47-1.62,1.56-.7,6.35-1.77a4,4,0,0,0,4.07,1.43,4.89,4.89,0,0,0-1.31,4.44c.46.88,1.77.35,2.74.18s2,1.45,1,1.49c1.74,1.05,3.84,2.13,5.69,1.28s1.48-4.51-.52-4.11a2.07,2.07,0,0,0,1.09-1.94L408,265.44a19.24,19.24,0,0,1,1.46-2.14,5.26,5.26,0,0,1,1.62-.15c2.66.14,6.82,1.64,9.23,1.8a31.25,31.25,0,0,0,2.23,3.22Z" style="fill:#000000;opacity:0.4"></path></g><path d="M421.05,265c-2.21.17-7-1.64-9.94-1.81s-4.78,2.19-5.35,1.81-3.67-.72-6.93,0c-5,1.1-2.63,1.13-6.49,1.8s-4.24,1-1.48,1.62,4.4-.66,6.25.45,2.59,1.85.93,2.22a58.33,58.33,0,0,1-9,1.47c-3.36.18,4.71,1.1,8,.92a10.58,10.58,0,0,1,5.72,1.17c.74.3-6.65,1.73-5.72,2.21s8.3-.06,12.35.95,3.49,3.24,5.89,4,6.44,1.1,7.91,4c-.13.63.48.71,1.12.81s1.29-.08,1.93,0c1.93.09,3.77,2,5.5,1.17" style="fill:none;stroke:#263238;stroke-linecap:round;stroke-linejoin:round"></path><path d="M393.7,293.71c4.46.84,3.07,1.08,6.38,1.82a36.3,36.3,0,0,0,9.39.92c4.23,0,12,.18,8.83,0s-14.72,1.84-15.83,1.84.74,1.1.92,1.66-4.6.73-7.36.73-5.34.74-6.44,1.66-2.76.64-4.42,0a7.23,7.23,0,0,1-2.58-1.66s-.55-3.49-1.65-4.23,1.28-2-2.4-2.76,1.75-1,1.84-2.95-2.44-2.77-1-3.68,0-3,0-3,5.82-.61,6,.64,3.13,2.35,5,2.36a34.24,34.24,0,0,1,5.89,1.08s-7,.12-6.62,1.27,2.46,1.33,3.71,1.52S389.78,293,393.7,293.71Z" style="fill:#fff"></path><g style="clip-path:url(#freepik--clip-path-4--inject-24)"><path d="M409.47,296.45c2,0,4.76,0,6.8.07-4.48.33-12.87,1.77-13.8,1.77-1.1,0,.74,1.1.92,1.66s-4.6.74-7.36.74-5.34.73-6.45,1.65-2.75.63-4.41,0a7.31,7.31,0,0,1-2.57-1.65s-.56-3.5-1.66-4.24a.58.58,0,0,1-.22-.22c1.59.21,3.18.48,4.75.81a1.39,1.39,0,0,0-.5,1.74c1.79.78,3.84-.14,5.57-1L393.9,296a16.77,16.77,0,0,0-7-3.4c.13-.63.25-1.26.37-1.89a1.81,1.81,0,1,1,.32-3.58.5.5,0,0,0,0-.6,8.07,8.07,0,0,0,2.73.56,35,35,0,0,1,5.89,1.09s-7,.12-6.63,1.27,2.47,1.34,3.73,1.51-3.53,2.05.39,2.79c4.46.84,3.07,1.08,6.38,1.82A36.34,36.34,0,0,0,409.47,296.45Z" style="fill:#000000;opacity:0.4"></path></g><path d="M393.7,293.71c4.46.84,3.07,1.08,6.38,1.82a36.3,36.3,0,0,0,9.39.92c4.23,0,12,.18,8.83,0s-14.72,1.84-15.83,1.84.74,1.1.92,1.66-4.6.73-7.36.73-5.34.74-6.44,1.66-2.76.64-4.42,0a7.23,7.23,0,0,1-2.58-1.66s-.55-3.49-1.65-4.23,1.28-2-2.4-2.76,1.75-1,1.84-2.95-2.44-2.77-1-3.68,0-3,0-3,5.82-.61,6,.64,3.13,2.35,5,2.36a34.24,34.24,0,0,1,5.89,1.08s-7,.12-6.62,1.27,2.46,1.33,3.71,1.52S389.78,293,393.7,293.71Z" style="fill:none;stroke:#263238;stroke-linecap:round;stroke-linejoin:round"></path><path d="M446.12,300.89s-8.61-1.12-7.63,3.08,3.77,2.11-.08,6.59-5.81,5.22-8.27,5.22-10.06,2.57-4.41,2.63,9.52-1.77,9.17,0-4.51,3.5-4.26,4.73,1.42,3.14,3,2.31,1.62,1.13,3.09,3.58-1.3,3.49.74,6.14,6.29,3.59,6.29,3.59-2.07,1.31,2.32,1.31" style="fill:#fff"></path><g style="clip-path:url(#freepik--clip-path-5--inject-24)"><path d="M447.24,323a2.94,2.94,0,0,1-1.11,1.68,34.32,34.32,0,0,1-3,1.87c-1.57,1-2.34,3.95-.52,4.42a5.34,5.34,0,0,1-2.89,1.24c-.89.67-.31,2.18.63,2.77s2.13.73,3,1.39a3.61,3.61,0,0,1,1.22,3.6c-2.26-.28-.76-1.23-.76-1.23s-4.26-.95-6.29-3.6.73-3.67-.74-6.13-1.48-4.42-3.09-3.58-2.8-1.08-3.05-2.31,3.93-2.95,4.27-4.73-3.53.07-9.17,0,2-2.63,4.42-2.63,4.41-.74,8.26-5.22,1.06-2.39.08-6.59,7.63-3.08,7.63-3.08v8.61c-.33.1-.61.17-.85.23.45,1.95-1.8,3.33-3.67,4l-6,2.28,4.28.28a24,24,0,0,1-4.69,5.92,23.89,23.89,0,0,0,10.91.95Z" style="fill:#000000;opacity:0.4"></path></g><path d="M446.12,300.89s-8.61-1.12-7.63,3.08,3.77,2.11-.08,6.59-5.81,5.22-8.27,5.22-10.06,2.57-4.41,2.63,9.52-1.77,9.17,0-4.51,3.5-4.26,4.73,1.42,3.14,3,2.31,1.62,1.13,3.09,3.58-1.3,3.49.74,6.14,6.29,3.59,6.29,3.59-2.07,1.31,2.32,1.31" style="fill:none;stroke:#263238;stroke-linecap:round;stroke-linejoin:round"></path><path d="M457.05,263.74a9.5,9.5,0,0,1,1.5-5.09,3.57,3.57,0,0,0,.71-1.38c.22-1.55-1.87-2.3-2.69-3.62-1.45-2.33,1.31-5.87-.48-8a5.73,5.73,0,0,0-1.5-1.06c-2.31-1.4-5.42-9.2-8.46-6.31-2.19,2.07-1.75.38-4.21-2.27s-3.93-4.24-3.93-4.24l-1.47,8-3.43-1.49s-1,3.33-6.13,0c-6.49-4.18-3.7.86-3.7.86s-.62,2.71-4.23.63-5.72-2.23-4.42.79,1.85,2.73-.39,2.38-4.2,2.86-2.73,3.95,2.9,4.32-.51,4.42-7.24,2.84-5.41,5a1.94,1.94,0,0,0,.2.21l2.29,2.23,1.21,4.53s8.84-.14,6.75,1.59-3.8,4.76,0,6.19,1.22.58,3,3.46.79,4.46,4.23,5.14,3-4.23,3.45.69,2,8.13,4.42,9,7.85,1.29,7.85,4-5.4,8.29,0,7.47,4.47,3.94,7.14,4,10.48,2.79,9.6-2.92c-.27-1.73-1.45-3.23-1.7-5-.6-4.23,4.38-8.26,2.67-12.18a13.35,13.35,0,0,1-1.18-2.4c-.35-1.65.94-3.61-.1-4.94-.35-.46-.94-.75-1.14-1.3-.5-1.34,1.53-2,2.6-3,1.68-1.51.92-4.2.47-6.41A13.72,13.72,0,0,1,457.05,263.74Z" style="fill:#000000"></path><path d="M457.05,263.74a9.5,9.5,0,0,1,1.5-5.09,3.57,3.57,0,0,0,.71-1.38c.22-1.55-1.87-2.3-2.69-3.62-1.45-2.33,1.31-5.87-.48-8a5.73,5.73,0,0,0-1.5-1.06c-2.31-1.4-5.42-9.2-8.46-6.31-2.19,2.07-1.75.38-4.21-2.27s-3.93-4.24-3.93-4.24l-1.47,8-3.43-1.49s-1,3.33-6.13,0c-6.49-4.18-3.7.86-3.7.86s-.62,2.71-4.23.63-5.72-2.23-4.42.79,1.85,2.73-.39,2.38-4.2,2.86-2.73,3.95,2.9,4.32-.51,4.42-7.24,2.84-5.41,5a1.94,1.94,0,0,0,.2.21l2.29,2.23,1.21,4.53s8.84-.14,6.75,1.59-3.8,4.76,0,6.19,1.22.58,3,3.46.79,4.46,4.23,5.14,3-4.23,3.45.69,2,8.13,4.42,9,7.85,1.29,7.85,4-5.4,8.29,0,7.47,4.47,3.94,7.14,4,10.48,2.79,9.6-2.92c-.27-1.73-1.45-3.23-1.7-5-.6-4.23,4.38-8.26,2.67-12.18a13.35,13.35,0,0,1-1.18-2.4c-.35-1.65.94-3.61-.1-4.94-.35-.46-.94-.75-1.14-1.3-.5-1.34,1.53-2,2.6-3,1.68-1.51.92-4.2.47-6.41A13.72,13.72,0,0,1,457.05,263.74Z" style="fill-opacity:0.7000000000000001;opacity:0.30000000000000004"></path><path d="M450.44,242.48a3.51,3.51,0,0,1-.57.51c-.36.25-.77.41-1.13.65-1.55,1-1.82,3.16-1.94,5a3.44,3.44,0,0,1-6.51.46c.06,1.09.11,2.19.17,3.28a1.68,1.68,0,0,0-1.69,2.36l-3.8,1a5.55,5.55,0,0,0-1.52-5c.13-.49.26-1,.4-1.47a6.21,6.21,0,0,1-4.05-1.59,2.06,2.06,0,0,0,.82-2.46l-4.54.31c1,1-.71,3,.23,4,.4.43,1.05.46,1.57.71A2.51,2.51,0,0,1,429,253a7.33,7.33,0,0,1-1.4,2.82c-.42.61-1,1.29-1.72,1.26s-1.37-1.06-1.49-1.94a4.58,4.58,0,0,0-.69-2.53,2.84,2.84,0,0,1-.4,1.64l-3.55-.11a9.36,9.36,0,0,0-1.54-7.1c-2.22,1.25-2,4.56-.89,6.82a4.28,4.28,0,0,1-4.83,0c-.75,3.18-4.17,3.29-5.77.91a2.61,2.61,0,0,1-1.18,1.65c-1.58-1.9,1.15-4.2,4.05-4.85a7.18,7.18,0,0,1,1.36-.19c3.41-.1,2-3.32.51-4.42s.49-4.3,2.73-3.95,1.69.63.39-2.38.81-2.88,4.42-.79,4.23-.63,4.23-.63-2.79-5,3.7-.86c5.14,3.33,6.13,0,6.13,0l3.43,1.49,1.47-8s1.48,1.57,3.93,4.24,2,4.34,4.21,2.27a2.14,2.14,0,0,1,2.36-.6,4.2,4.2,0,0,1,1.78,1.46Z" style="fill:#fff;opacity:0.5"></path><path d="M433.74,261c-.21.43.15.93.57,1.15a13.59,13.59,0,0,1,1.3.53c1.64,1.06.3,4.09,1.79,5.34a3.38,3.38,0,0,0,2.35.49l3.36-.15c.05-.85.09-1.7.14-2.55a10.51,10.51,0,0,1,1,2.16c.37.71,1.2,1.34,1.93,1,.56-.26.76-.93,1.14-1.41a5.24,5.24,0,0,1,1-.85,16.42,16.42,0,0,0,5.6-7.66,2.42,2.42,0,0,1-3,1.06,4.34,4.34,0,0,0-1.37-.59c-.82-.07-1.42.9-2.15.86s-1-.71-1.64-.85a17.57,17.57,0,0,0-4.54-.58c-1.72,0-2-.21-3.42.75-.81.55-.55,1.22-1.58,1.59C435.59,261.51,434.34,259.8,433.74,261Z" style="fill:#fff;opacity:0.5"></path><path d="M424.49,266.81a1.18,1.18,0,0,0,.74.15h3a7.68,7.68,0,0,1,.19,2.9,14.72,14.72,0,0,1-4.95-.49,4,4,0,0,1,.12,2,1.32,1.32,0,0,1-1.48,1c-.69-.18-.95-1.05-.89-1.77.13-1.72.14-3.81-2.26-3.42-.37-1.51,1.18-4.83,1.94-6.23.06,1.66.9,2,1.87,3,.63.67,1.05.12,1.54,1.08C424.56,265.55,423.79,266.31,424.49,266.81Z" style="fill:#fff;opacity:0.5"></path><path d="M438,272.5a2.44,2.44,0,0,1,2.47.84c.52.69.74,1.76,1.58,2,1.09.25,2.23-1.28,3.14-.64-.35,1.58-.56,3.58.78,4.47a3.15,3.15,0,0,1,1,.68c.55.77-.36,1.77-1.24,2.13a6.58,6.58,0,0,1-2.91.46c-.42,0-.91-.07-1.2.24s-.18.95-.23,1.44a2.08,2.08,0,0,1-1.44,1.62,5.68,5.68,0,0,1-2.25.18,1.49,1.49,0,0,1-.88-.25c-.41-.35-.32-1-.3-1.52.11-3.75-3.15-.11-4-1.43-.31-.5.85-3.75.59-5-.31-1.44-1.27-2,0-2.75.71-.43,1.95.2,2.82-.34S436.69,272.82,438,272.5Z" style="fill:#fff;opacity:0.5"></path><path d="M445.71,242.52a4.88,4.88,0,0,0-2.72.63,2.54,2.54,0,0,1,1.34,2.5,1.6,1.6,0,0,1-2.29,1.13c-.62-.44-1.33-1.46-1.83-.89a1.39,1.39,0,0,1-1.32,1.19,1.91,1.91,0,0,0-2.59-1.31c0,.9-.07,1.82-.1,2.72a2.28,2.28,0,0,1-3-1.5c-.19-.88.14-1.9-.35-2.65-1.14-1.71-5,0-5.35-2.05.42,1.26-1.53,1.87-2.26,3-.62.9-.33,2.11-.43,3.2s-1.17,2.31-2.1,1.75a9.88,9.88,0,0,1-4.56-6.53,2.79,2.79,0,0,1-3.24,2.76c.34,2.3.37,5.92-2.78,6a4.62,4.62,0,0,1-2.49-.92,7.18,7.18,0,0,1,1.36-.19c3.41-.1,2-3.32.51-4.42s.49-4.3,2.73-3.95,1.69.63.39-2.38.81-2.88,4.42-.79,4.23-.63,4.23-.63-2.79-5,3.7-.86c5.14,3.33,6.13,0,6.13,0l3.43,1.49,1.47-8s1.48,1.57,3.93,4.24,2,4.34,4.21,2.27a2.14,2.14,0,0,1,2.36-.6A23.71,23.71,0,0,1,445.71,242.52Z" style="fill:#fff"></path><path d="M438.21,265c.23.59,1,.75,1.62.82a1.7,1.7,0,0,0,1.14-.13c.47-.29.53-.93.73-1.45s.83-1,1.25-.65.23.68.35,1c.32.85,1.51.86,2.41.71a2.2,2.2,0,0,0,1.06-.39c.56-.49.47-1.38.82-2a1.64,1.64,0,0,1,1.33-.86c-.67-.37-1.5-.13-2.27-.19s-1.64-.78-1.27-1.45c-1.91-.2-6-1.06-7.66.27S437.62,263.48,438.21,265Z" style="fill:#fff"></path><path d="M421.24,263.18a3.11,3.11,0,0,0-.56,2.17c0,.29.15.62.43.71s.45,0,.65,0c.55.2.21,1.07.5,1.57s1.3.24,1.47-.38a1.94,1.94,0,0,0-.62-1.74,5.91,5.91,0,0,1-1.21-1.49,1,1,0,0,0-.26-.43c-.14-.1-.39-.06-.41.11" style="fill:#fff"></path><path d="M454.59,244.64c-2.31-1.4-5.42-9.2-8.46-6.31-2.19,2.07-1.75.38-4.21-2.27s-3.93-4.24-3.93-4.24l-1.47,8-3.43-1.49s-1,3.33-6.13,0c-6.49-4.18-3.7.86-3.7.86s-.62,2.71-4.23.63-5.72-2.23-4.42.79,1.85,2.73-.39,2.38-4.2,2.86-2.73,3.95,2.9,4.32-.51,4.42-7.24,2.84-5.41,5a1.94,1.94,0,0,0,.2.21l2.29,2.23,1.21,4.53s8.84-.14,6.75,1.59-3.8,4.76,0,6.19,1.22.58,3,3.46.79,4.46,4.23,5.14,3-4.23,3.45.69,2,8.13,4.42,9,7.85,1.29,7.85,4-5.4,8.29,0,7.47,4.47,3.94,7.14,4" style="fill:none;stroke:#263238;stroke-linecap:round;stroke-linejoin:round"></path><path d="M386.09,285.71l-5.63-.54-.61,0a4.81,4.81,0,0,0-.5-1.07s5.82-.61,6,.65A1.73,1.73,0,0,0,386.09,285.71Z" style="fill:#000000;opacity:0.4"></path><path d="M416.27,296.52a15.4,15.4,0,0,1,2-.07C420,296.55,418.57,296.54,416.27,296.52Z" style="fill:#000000;opacity:0.4"></path><path d="M416.27,296.52a15.4,15.4,0,0,1,2-.07C420,296.55,418.57,296.54,416.27,296.52Z" style="fill:#fff;stroke:#263238;stroke-linecap:round;stroke-linejoin:round"></path><path d="M127.73,306.49c19.47-4.59,38.24-8.73,56.08-12.44l-7.91-1.11c-22,4.17-42,8.27-59.72,12.09Z" style="fill:#fff"></path><path d="M268,277.29c-6.53,1-13,2-19.34,3l3.5.7q9.62-1.68,18.49-3.15Z" style="fill:#fff"></path><path d="M319.23,270.16q-5.21.66-10.36,1.35l1.65.12,9.81-1.39Z" style="fill:#fff"></path><path d="M236.45,282.25q-18.73,3.08-36.22,6.21l6.31,1c11.86-2.34,23.21-4.47,34-6.41Z" style="fill:#fff"></path><path d="M344.25,267.1h0l1.81-.22Z" style="fill:#fff"></path><path d="M34.34,327c.07.36.16.71.25,1a11.66,11.66,0,0,1,4.58,1.59q20.55-5.89,40.59-11.16l-11.28-2.58C50.21,320.24,38,323.46,33,324.78v.3A2.74,2.74,0,0,1,34.34,327Z" style="fill:#fff"></path><path d="M289,274.23q-7.25,1-14.35,2.07c1.43,0,2.69.14,3.72.26q6.75-1.1,13-2.06Z" style="fill:#fff"></path><path d="M346.06,266.89l7-.8S350.62,266.34,346.06,266.89Z" style="fill:#fff"></path><path d="M306.21,271.86l-13.81,1.89c.9.05,1.78.12,2.6.19q6.88-1.05,13.06-1.95Z" style="fill:#fff"></path></g><g id="freepik--Character--inject-24"><path d="M340.25,431.11c-32.81,2.36-41.57-9.79-35.37-16.81,14.74-16.67,21.16-32.75,19-38.15s-22.18-10.45-24.7-14.31,13.27-23.4,20.59-25.4,42.27-1.92,46.15,0-1.21,5.58,1.34,11.85,7,6.78,7.47,12.66-11.26,10.2-15.71,12.46-17.51,29.31-12.69,33.2S373.15,428.74,340.25,431.11Z" style="fill-opacity:0.7000000000000001;opacity:0.30000000000000004"></path><path d="M312.42,416.06a53.24,53.24,0,0,1,0-7.94c.38-2.07,2.45-8.87,2.45-8.87s-2.26-6.24,0-8.5,18.7-7.18,23.05-5.1S341.69,396,341.69,396s5.05,2.66,4.61,10.59S312.42,416.06,312.42,416.06Z" style="fill:#263238"></path><path d="M314.15,420c-.4-1-1.73-2.07-1.73-4a4.29,4.29,0,0,1,1.73-3.12s2.24-5.76,2.24-7.84,7.68-6.05,16-5.57,12.26,3.5,13,5a7.66,7.66,0,0,1-.92,8.4C341.82,416.56,314.15,420,314.15,420Z" style="fill:#fff;stroke:#263238;stroke-linecap:round;stroke-linejoin:round"></path><path d="M315,416.56c1.1-4.28,1.1-9.82,6.9-11.58s18.13-1.77,21.91,1.26,0,8.56-2,10.32-.75,3-3.52,4.29-20.34,2-23.27,0S315,416.56,315,416.56Z" style="fill:#fff"></path><g style="clip-path:url(#freepik--clip-path-6--inject-24)"><path d="M315,416.56c1.1-4.28,1.1-9.82,6.9-11.58s18.13-1.77,21.91,1.26,0,8.56-2,10.32-.75,3-3.52,4.29-20.34,2-23.27,0S315,416.56,315,416.56Z" style="fill-opacity:0.7000000000000001;opacity:0.30000000000000004"></path></g><path d="M315,416.56c1.1-4.28,1.1-9.82,6.9-11.58s18.13-1.77,21.91,1.26,0,8.56-2,10.32-.75,3-3.52,4.29-20.34,2-23.27,0S315,416.56,315,416.56Z" style="fill:none;stroke:#263238;stroke-linecap:round;stroke-linejoin:round"></path><line x1="318.84" y1="409.45" x2="342.83" y2="409.45" style="fill:none;stroke:#263238;stroke-linecap:round;stroke-linejoin:round"></line><line x1="317.52" y1="413.79" x2="340.94" y2="413.79" style="fill:none;stroke:#263238;stroke-linecap:round;stroke-linejoin:round"></line><line x1="316.39" y1="417.57" x2="337.92" y2="417.57" style="fill:none;stroke:#263238;stroke-linecap:round;stroke-linejoin:round"></line><line x1="317.52" y1="420.02" x2="334.9" y2="420.02" style="fill:none;stroke:#263238;stroke-linecap:round;stroke-linejoin:round"></line><path d="M320.62,395.45a21.64,21.64,0,0,1,16.52-1,15.48,15.48,0,0,0-9.64-2.12C321.8,393,320.62,395.45,320.62,395.45Z" style="fill:#fff;stroke:#263238;stroke-linecap:round;stroke-linejoin:round"></path><path d="M319.62,397.63s12.41-5.26,20.63-1.73C340.25,395.9,328.84,389,319.62,397.63Z" style="fill:#fff;stroke:#263238;stroke-linecap:round;stroke-linejoin:round"></path><path d="M349.86,371.76c-.29,7.6-6.42,13-5.46,14.47s0,11.4,0,11.4-3.2-.82-7.67-5.34-23,4.11-23,4.11l-1.31-10.17,1.54-2.75.72-40.52.07-4.2s-7.1-12.2-11.36-21.06c-1.15-2.39-2.53-8.8-3.95-16.89-1.49-8.54-3-19-4.32-28.5-2.05-15-3.56-27.78-3.56-27.78s30.33-6.41,50.56-5.19c9.86.6,17.32,3,17.7,8.85,1.17,17.83-5.64,77.93-10,92.75S350.15,364.15,349.86,371.76Z" style="fill:#000000"></path><g style="clip-path:url(#freepik--clip-path-7--inject-24)"><path d="M318.41,272.43l5.34,1.17s-2.38,5.79.1,7.38c0,0-2.55,16.42-4.23,22.69s-2.8,24.51-4.9,39c0,.09,0,.18,0,.27l.07-4.2s-7.1-12.2-11.36-21.06c-1.15-2.39-2.53-8.8-3.95-16.89,2.51,6.41,4.83,11.54,5.87,11.69,2.83.39,13.92-10.2,14.65-12.78s.66-8.94.66-8.94-10,.83-12.56,0,8.52-5.08,7.86-5.07-4.86.82-8.83-.9-6.33-5.68-3.69-5.68,15-2.31,15-2.31-11-.67-13.53-2.21q-.33-.21-.36-.42a14.44,14.44,0,0,1-9.4-1.88c-2.05-15-3.56-27.78-3.56-27.78s30.33-6.41,50.56-5.19C338.76,249.62,331.27,267.39,318.41,272.43Z" style="fill-opacity:0.7000000000000001;opacity:0.2"></path></g><path d="M349.86,371.76c-.29,7.6-6.42,13-5.46,14.47s0,11.4,0,11.4-3.2-.82-7.67-5.34-23,4.11-23,4.11l-1.31-10.17,1.54-2.75.72-40.52.07-4.2s-7.1-12.2-11.36-21.06c-1.15-2.39-2.53-8.8-3.95-16.89-1.49-8.54-3-19-4.32-28.5-2.05-15-3.56-27.78-3.56-27.78s30.33-6.41,50.56-5.19c9.86.6,17.32,3,17.7,8.85,1.17,17.83-5.64,77.93-10,92.75S350.15,364.15,349.86,371.76Z" style="fill:none;stroke:#263238;stroke-linecap:round;stroke-linejoin:round"></path><path d="M314.75,338.76c-.39-15,3.86-32.85,4.87-35.09S322,282.13,322,282.13s15.14-11.09,24.31-12.45" style="fill:none;stroke:#263238;stroke-linecap:round;stroke-linejoin:round"></path><path d="M322,282.13c-1.87-.83-7.51,1.11-16.73-.86" style="fill:none;stroke:#263238;stroke-linecap:round;stroke-linejoin:round"></path><path d="M321.07,284.7s-11.17,5.32-14,4.65" style="fill:none;stroke:#263238;stroke-linecap:round;stroke-linejoin:round"></path><path d="M339.19,260.84c-.67.32-15.66,16-30.87,16" style="fill:none;stroke:#263238;stroke-linecap:round;stroke-linejoin:round"></path><path d="M318.61,256.58s-.45,12.41,0,14.2a5.43,5.43,0,0,0,2.46,2.89s-1,4.56,0,6.51" style="fill:none;stroke:#263238;stroke-linecap:round;stroke-linejoin:round"></path><path d="M323.75,256.61s.23,7.24,0,9.92-3.35,3.15-3.35,3.15" style="fill:none;stroke:#263238;stroke-linecap:round;stroke-linejoin:round"></path><line x1="299.59" y1="261.54" x2="295.39" y2="268.38" style="fill:none;stroke:#263238;stroke-linecap:round;stroke-linejoin:round"></line><path d="M351.72,261.54s3.13-.15,6,5.22" style="fill:none;stroke:#263238;stroke-linecap:round;stroke-linejoin:round"></path><path d="M348.14,332.11s-15,23.24-22.39,21" style="fill:none;stroke:#263238;stroke-linecap:round;stroke-linejoin:round"></path><path d="M344.4,386.23s-9.54-5.18-13.86-6.06-14.62,3-14.62,3" style="fill:none;stroke:#263238;stroke-linecap:round;stroke-linejoin:round"></path><path d="M287.83,256s27.76,4.23,39.4,3.86,40-5.14,40-5.14L356.94,147.51l-59.23,2.41Z" style="fill:#263238"></path><path d="M343.07,209.22s-11.92,20-32,21.58" style="fill:none;stroke:#fff;stroke-linecap:round;stroke-linejoin:round"></path><path d="M313.27,181.2s8.57,16.73,17.27,22.17" style="fill:none;stroke:#fff;stroke-linecap:round;stroke-linejoin:round"></path><path d="M348,254.72v6.94s16.67.74,21.71-1l.38-6Z" style="fill:#757575;stroke:#263238;stroke-linecap:round;stroke-linejoin:round"></path><path d="M304.88,254.72l-.87,7.1s-14.83.58-21-1.63l-1.12-5.47Z" style="fill:#757575;stroke:#263238;stroke-linecap:round;stroke-linejoin:round"></path><path d="M393.6,217.48c-1,3.29-7.66,10.7-12.77,16.08-2.73,2.88-5,5.17-5.83,6l-.3.3,1.69,4.31,0,.1L370,254.72H348s.49-24.48,1.22-35.94-3.92-64.86-5.81-68.86-9.4-4.59-13.32-5.24-17,2.38-19.46,7.52-7.06,48.35-5.7,66.58a271.11,271.11,0,0,1,0,35.94h-23l-8.27-14.41.84-4.68.39-2.2a45,45,0,0,1-6.26-7.31c-3.57-5.14-7.08-12.5-5.77-20.42,2.46-14.84,26.51-52.52,26.51-52.52s21.29-9.2,38-10.31,42,7.61,44.69,12.52S395.31,212,393.6,217.48Z" style="fill:#999"></path><g style="clip-path:url(#freepik--clip-path-8--inject-24)"><path d="M290.42,187.42c-2.89,6.46-.82,29.25-.82,29.25-10.64,4.85-14.92,19.08-14.92,19.08l-.26-.12.39-2.2a45,45,0,0,1-6.26-7.31c7-11.12,15.58-9,15.58-9s3.24-9.07,1.72-10.36-13.31-1.67-12.55-5.13,10.91-2.48,10.83-2.37.67-3.86-1.1-7,7.31-5.2,4.8-7.92-4.82-10.53-5-11L287,178l1.81-4.7c.62,2.17,2.94-.27,2.94-.27S293.31,181,290.42,187.42Z" style="fill-opacity:0.7000000000000001;opacity:0.2"></path><path d="M380.83,233.56c-2.73,2.88-5,5.17-5.83,6a75.37,75.37,0,0,0-6.85-15.3c-.14.73-.22.36-.25-.4a36.35,36.35,0,0,0-2.75-3.81s1-12.76,1-16.31.47-27.12,2.31-31.66l.15-1.12a11.1,11.1,0,0,1,1.48,8.41,33.19,33.19,0,0,0,1.95-3.08c1.43-2.41,4.38,4.1,2.71,7.37a25.33,25.33,0,0,1-5.49,6.41c.46-.25,6-3.2,5.49,0s-6.05,5.23-6.14,6.48,1.48,8.09,1.48,8.09,6.15,1.41,6.34,4.6-6.68,2.63-7.76,11.1A24.14,24.14,0,0,1,380.83,233.56Z" style="fill-opacity:0.7000000000000001;opacity:0.2"></path></g><path d="M393.6,217.48c-1,3.29-7.66,10.7-12.77,16.08-2.73,2.88-5,5.17-5.83,6l-.3.3,1.69,4.31,0,.1L370,254.72H348s.49-24.48,1.22-35.94-3.92-64.86-5.81-68.86-9.4-4.59-13.32-5.24-17,2.38-19.46,7.52-7.06,48.35-5.7,66.58a271.11,271.11,0,0,1,0,35.94h-23l-8.27-14.41.84-4.68.39-2.2a45,45,0,0,1-6.26-7.31c-3.57-5.14-7.08-12.5-5.77-20.42,2.46-14.84,26.51-52.52,26.51-52.52s21.29-9.2,38-10.31,42,7.61,44.69,12.52S395.31,212,393.6,217.48Z" style="fill:none;stroke:#263238;stroke-linecap:round;stroke-linejoin:round"></path><path d="M307.89,156.45s-15-.27-16.15-9.5,58.54-12.08,68.48-7.53-12.89,17-12.89,17l1.84,62.33s-4.56-65.85-7.43-68.86-30,0-30,0a458.75,458.75,0,0,0-6.87,68.86S303.85,173.83,307.89,156.45Z" style="fill:#757575;stroke:#263238;stroke-linecap:round;stroke-linejoin:round"></path><path d="M291.73,215.76c-12.63,4.67-16.92,17.67-16.92,17.67" style="fill:none;stroke:#263238;stroke-linecap:round;stroke-linejoin:round"></path><path d="M285.85,158.71s1.44,14.1,5.88,21.71" style="fill:none;stroke:#263238;stroke-linecap:round;stroke-linejoin:round"></path><path d="M291.73,173.06s1.24,5.64-1.22,15.71-1.82,28.35-1.82,28.35" style="fill:none;stroke:#263238;stroke-linecap:round;stroke-linejoin:round"></path><path d="M284.13,176.25s4,6.64,7.4,7.37" style="fill:none;stroke:#263238;stroke-linecap:round;stroke-linejoin:round"></path><path d="M277.26,200.79c.74,0,9.6.25,11.43,5.16" style="fill:none;stroke:#263238;stroke-linecap:round;stroke-linejoin:round"></path><path d="M374.22,160.29s-2.71,12.41-5.66,17.74" style="fill:none;stroke:#263238;stroke-linecap:round;stroke-linejoin:round"></path><path d="M374.7,239.82c-1.48-4.42-5.65-17.54-11.05-21" style="fill:none;stroke:#263238;stroke-linecap:round;stroke-linejoin:round"></path><path d="M365.89,220.82s.71-19.49,1.2-27.24,1.47-24,1.47-24" style="fill:none;stroke:#263238;stroke-linecap:round;stroke-linejoin:round"></path><path d="M371.39,178s.52,1.16-3.49,2.39" style="fill:none;stroke:#263238;stroke-linecap:round;stroke-linejoin:round"></path><path d="M366.1,215.32s2.22-8.64,11.79-6.18" style="fill:none;stroke:#263238;stroke-linecap:round;stroke-linejoin:round"></path><path d="M340,135.19c-3.88-3.05-29.32-2.57-28.22,5.87s25.64,7.46,28.22,3.53S343.11,137.67,340,135.19Z" style="fill:#000000"></path><g style="clip-path:url(#freepik--clip-path-9--inject-24)"><path d="M340,135.19c-3.88-3.05-29.32-2.57-28.22,5.87s25.64,7.46,28.22,3.53S343.11,137.67,340,135.19Z" style="fill-opacity:0.7000000000000001;opacity:0.2"></path></g><path d="M340,135.19c-3.88-3.05-29.32-2.57-28.22,5.87s25.64,7.46,28.22,3.53S343.11,137.67,340,135.19Z" style="fill:none;stroke:#263238;stroke-linecap:round;stroke-linejoin:round"></path><path d="M335.08,132.19,337.39,144s-9,6.62-16.11,5.89-8-6.79-8-6.79l4.17-9.89" style="fill:#bfbfbf;stroke:#263238;stroke-linecap:round;stroke-linejoin:round"></path><path d="M317.63,163.44a93.28,93.28,0,0,0-.53,21.76c.13,1.16.3,2.31.51,3.44a3,3,0,0,1-2.69.82c-1.52-.42-3.31-2.47-4.29-2.47s-3,2.5-4.67,3c-1.17.34-2-1.31-2-1.31s0-1.53.15-4c.42-9.11,2-31.17,7.31-40.28.06-.11.12-.22.19-.33l8,8.09S318.49,156.79,317.63,163.44Z" style="fill:#000000"></path><g style="clip-path:url(#freepik--clip-path-10--inject-24)"><path d="M317.1,185.2c.13,1.16.3,2.31.51,3.44a3,3,0,0,1-2.69.82c-1.52-.42-3.31-2.47-4.29-2.47s-3,2.5-4.67,3c-1.17.34-2-1.31-2-1.31s0-1.53.15-4c1.17.48,2.5.91,3.18.63,1.39-.58,1.29-7.63,3.66-10s3.17,7.12,5.34,9.69A.83.83,0,0,0,317.1,185.2Z" style="fill-opacity:0.7000000000000001;opacity:0.2"></path><path d="M319.62,152.07s-1.13,4.72-2,11.37a24.1,24.1,0,0,1-3.36-6.62s-3.35,8.61-4.24-.39a29.16,29.16,0,0,1,1.36-12.12c.06-.11.12-.22.19-.33Z" style="fill-opacity:0.7000000000000001;opacity:0.2"></path></g><path d="M317.63,163.44a93.28,93.28,0,0,0-.53,21.76c.13,1.16.3,2.31.51,3.44a3,3,0,0,1-2.69.82c-1.52-.42-3.31-2.47-4.29-2.47s-3,2.5-4.67,3c-1.17.34-2-1.31-2-1.31s0-1.53.15-4c.42-9.11,2-31.17,7.31-40.28.06-.11.12-.22.19-.33l8,8.09S318.49,156.79,317.63,163.44Z" style="fill:none;stroke:#263238;stroke-linecap:round;stroke-linejoin:round"></path><path d="M345.74,149.92c-1.82,6-18.27,11.78-27,7.56a9.58,9.58,0,0,1-3.1-2.34c-7-8.14-3.92-14.08-3.92-14.08.74.34,1.46.65,2.17.92,18.15,7,26.05-6.79,26.05-6.79,5.28,3,4.08,7.58,4.08,7.58S346.21,148.35,345.74,149.92Z" style="fill:#000000"></path><g style="clip-path:url(#freepik--clip-path-11--inject-24)"><path d="M338.8,145.25c-1,1.68-12.66,7.42-14.34,7.62s-7.71-1.78-7.71-1.39a8.11,8.11,0,0,0,2,6,9.58,9.58,0,0,1-3.1-2.34c-7-8.14-3.92-14.08-3.92-14.08.74.34,1.46.65,2.17.92-1.82,1.49,3.85,7.84,8,7.93S339.79,143.57,338.8,145.25Z" style="fill-opacity:0.7000000000000001;opacity:0.2"></path></g><path d="M345.74,149.92c-1.82,6-18.27,11.78-27,7.56a9.58,9.58,0,0,1-3.1-2.34c-7-8.14-3.92-14.08-3.92-14.08.74.34,1.46.65,2.17.92,18.15,7,26.05-6.79,26.05-6.79,5.28,3,4.08,7.58,4.08,7.58S346.21,148.35,345.74,149.92Z" style="fill:none;stroke:#263238;stroke-linecap:round;stroke-linejoin:round"></path><path d="M320.8,140.3c-5.55,2.54-10.75,3.86-13.46,3.67s-2.62-11.78-2.62-11.78-3.77-2-3.9-3.23c-.17-1.79,4.53-5.59,4.53-5.59s-.89-16.73,9.21-23.37c12.12-8,28.7-.14,27.06,18.09-.51,5.74-4.17,10.78-9,14.85" style="fill:#bfbfbf;stroke:#263238;stroke-linecap:round;stroke-linejoin:round"></path><path d="M307.89,116s2.46-.93,5.38,2" style="fill:none;stroke:#263238;stroke-linecap:round;stroke-linejoin:round"></path><path d="M310.72,121.37c-.05.73-.42,1.31-.83,1.28s-.69-.65-.63-1.39.42-1.31.83-1.28S310.78,120.63,310.72,121.37Z" style="fill:#263238"></path><path d="M304.72,132.19l4.46.32,2.72,4.59,5-1.83,2.72-10.9-.8-10.15s26.41,3.26,24.41,9.49c-4,12.41-11.58,12.23-11.58,12.23l-6.4-12.8-2.6,1.45s.41,13.5-.09,16.6-16.2,7.14-17.55,6.67-3.62,1.21-.63-11.21c0,0-.54-1-.77-1.53S304.72,132.19,304.72,132.19Z" style="fill:#263238"></path><path d="M323.76,125.18s1.75-4.59,3.68-4,5.34,1,5.13,4-.73,6.78-2.51,7.54-5.15,3.1-5.83,2.31.46-3.06.46-3.06" style="fill:#bfbfbf;stroke:#263238;stroke-linecap:round;stroke-linejoin:round"></path><path d="M351.79,110.73a.29.29,0,0,1-.13.14,9.18,9.18,0,0,1-2.92.3c-.24,2.67-4,12.61-4,12.61a7.76,7.76,0,0,0,.73,1.88c.38.53-1.9,4.92-2.41,5.77s-2.88.76-2.88.76-6,4.86-17.48-12.4c-3.06-4.58-15.45-11.09-15.45-11.09a1.5,1.5,0,0,1-.35-.93c-.15-2,2.17-5.22,2.17-5.22l1.56.16s8.79-11.37,13.09-10.32,15.85,2.89,17.33,4.15S352,110.19,351.79,110.73Z" style="fill:#000000"></path><g style="clip-path:url(#freepik--clip-path-12--inject-24)"><path d="M351.66,110.87a9.18,9.18,0,0,1-2.92.3c-.24,2.67-4,12.61-4,12.61a7.76,7.76,0,0,0,.73,1.88c.38.53-1.9,4.92-2.41,5.77s-2.88.76-2.88.76-6,4.86-17.48-12.4c-3.06-4.58-15.45-11.09-15.45-11.09a1.5,1.5,0,0,1-.35-.93l15.58,8s10.81,11.74,12,12.36,4.08-2.94,4.08-2.94-11.71-16.12-17.32-17.82,6.77-4.2,8.62-2.22,10,11.71,10,11.71,3.94-5.78,2.27-7.49-7.47-8.18-7.47-8.18,8.57-.39,9.36.66C344.55,102.62,348.65,107.28,351.66,110.87Z" style="fill-opacity:0.7000000000000001;opacity:0.2"></path></g><path d="M351.79,110.73a.29.29,0,0,1-.13.14,9.18,9.18,0,0,1-2.92.3c-.24,2.67-4,12.61-4,12.61a7.76,7.76,0,0,0,.73,1.88c.38.53-1.9,4.92-2.41,5.77s-2.88.76-2.88.76-6,4.86-17.48-12.4c-3.06-4.58-15.45-11.09-15.45-11.09a1.5,1.5,0,0,1-.35-.93c-.15-2,2.17-5.22,2.17-5.22l1.56.16s8.79-11.37,13.09-10.32,15.85,2.89,17.33,4.15S352,110.19,351.79,110.73Z" style="fill:none;stroke:#263238;stroke-linecap:round;stroke-linejoin:round"></path><path d="M311.75,103.27s11.1,4.46,13.58,6.4,11.33,11.09,12.06,11.92,5.86,2.12,5.86,2.12" style="fill:none;stroke:#263238;stroke-linecap:round;stroke-linejoin:round"></path><polyline points="348.74 111.17 337.39 102.74 343.07 103.28 345.81 106.96" style="fill:none;stroke:#263238;stroke-linecap:round;stroke-linejoin:round"></polyline><path d="M325.33,107c2.49-.49,9.61,5.61,9.61,5.61l4.91,8.36" style="fill:none;stroke:#263238;stroke-linecap:round;stroke-linejoin:round"></path></g></svg>